<mxfile host="app.diagrams.net" modified="2023-10-10T06:43:14.514Z" agent="Mozilla/5.0 (Windows NT 10.0; Win64; x64) AppleWebKit/537.36 (KHTML, like Gecko) Chrome/116.0.0.0 Safari/537.36" etag="_ezfLRgsXA0q2T8PTlL2" version="22.0.4" type="github">
  <diagram name="第 1 页" id="7tVqx-FWxul3OMvBL2RQ">
    <mxGraphModel dx="795" dy="513" grid="0" gridSize="10" guides="1" tooltips="1" connect="1" arrows="1" fold="1" page="0" pageScale="1" pageWidth="827" pageHeight="1169" math="0" shadow="0">
      <root>
        <mxCell id="0" />
        <mxCell id="1" parent="0" />
        <mxCell id="OeS4Q1I3CSxu7Xxp6_FL-10" value="终端设备" style="text;html=1;strokeColor=none;fillColor=none;align=center;verticalAlign=middle;whiteSpace=wrap;rounded=0;" parent="1" vertex="1">
          <mxGeometry x="210" y="380" width="60" height="30" as="geometry" />
        </mxCell>
        <mxCell id="OeS4Q1I3CSxu7Xxp6_FL-14" value="" style="shape=image;verticalLabelPosition=bottom;verticalAlign=top;imageAspect=0;aspect=fixed;image=data:image/png,iVBORw0KGgoAAAANSUhEUgAAAG4AAACCCAYAAACn3f0CAAAAAXNSR0IArs4c6QAAAARnQU1BAACxjwv8YQUAAAAJcEhZcwAADsMAAA7DAcdvqGQAAD6fSURBVHhe7Z13kF/Xdd/PViz6ovfeQZAAAaKQBAEQBBtImqSkSKIkUpacjP+KZ2xnkj88GcsZyk7+yB9JHMszlmXPyLFkFpBikUiwiCJB9N6JXha97aIssD3fzznv7v62gYCEspR0Fhfv/d679bR7zm0vr0Fgv4cvHORn1+sCaJ1CS7jau99VaA8XvwmOfi2JI0kK9fX1fs3Pz7e8vDwPQLoCufe/S5BwlID7goICvwdvQFv4uha4bsKlyhBqamqssrLSr507d7aSkpJmBPx1K/XbAompE4Cn8+fPW2FhoXXr1s2vwK+Dp2smXBCLm7ivvHzZtm7dYqtWrRLxLtuIEcPtgblzbdjwYc0qm0vA30WAeISysjJbvXq17d9/wIqLO9k998ywqVOnWteuXZoR7lpxdZ2EI+TZpUuXbM2atfbBLz+0M2dOW7U4qUtJZ3vooYW28KEHrWuXrlYgyQN+T7h6Ky8vt/fff98+WbbMrlypsgbho3ev3vbwww/b7Fn3WBeIp7/868DVNRsnZJyXl29VKnjjhs32zjvv2qnTZ6y6TupAhV28XGlHjh0TUS9LXRY0Sl0Twa+JP34rAUY/efKUXbx4yeqEh1qFU2fP2C/efcfWrd/gOEtq9Vpxde1WpRihtqbetm3fbm+++aadPHXKqmtrrV4SmEInSV1BYZHuVQn+UgX0zjP4LYWrIzxPqrHYOnXqpNt8RwWxGvT83LkKe+Ott2zvvn12parKiXetcG2EU0k1NQ12+PARe/ONt+zs2bNRCSeIMpFaHD16lN199zTr0aOHnvM0I1YWx2v7Wwi5RGsKei4a1NeFquzZs6fNmjXLRo8apWcimd7nCS95Dfl2seKSvfLyK3boUJlwXOvprwWuSrjGSui+orzC3nrrbTsmdSidCd0EiHe9DRk6xB577DGbNHmSLKUC19NN5WeEyyC3gb+1kOEsWpjnLsC4ceNs0aJFNmzYML1owklVdZWr0Q8++EAGX2X2tAlP7cHVJU4FwCHV1XX26YoVtmHTequHXfKzjlRRhg4ebE88/phNl7SVyFpKHWxNbZ3V1jfYwcNltmrtWjsoq6qqShxVD1GjQr8NBKSthHq1df++A7Z27Xo7cOCgS5yTR83LyyuwoqJiu+uuu2zhggetjwyTuup6qxOOhEpda2z7lq326bLlVluLuhSOhCfw3x5+Cr4nyO5bAQVXV9d4hf7hH3+o/iv8juCoeuvTt4/NXzDf5syebYVFekchqrHaoQrU2c9//nP7t5desuWfLvfQo3t3Gzx4UFic3ioaFQ3/IsOVK1fsl7Kwf/SP/2TLZDmuW79ebaL7GOPvaR3dSWFRkQ0aNMiNt6NHjyndZcWjtwMPZnv37LVR6nL69e3nOIFoaLa28HN1iVN8+suXX37ZqV+LMYL1I6KVyOG+8847be7c+62oWOpRT1GbcF5lZZXM3w/tk4+XWfm58yo83+qUbsmSV+3c2XNuvLS0otrjrI4O1BunGiatU6fWWQZajTTUO+8stbffftvq6tTRCY/oJ5RVcWGxzbv/AZshDdW9a1crzC+U1MkKF95qJHmvvvqqq8zaulrPrz2mvirhkNqPP11mO/fukYp02nngfvjw4fLZFlhJSXFO5nmqaL07mh9++KGdPXdORC2k3g5OeHTIFwzaY670DIlD7QG1al91fa1dqa225atW2ceSwBp3mfy1q0ZwtmjRQzZixDAXAqSOPzBz+MgRW71+ndXxRJF51hZLt0s48Hv69Glb+sH7ll8kiSpQVDISZ/Tv38/mzZ+na3+pPQgTFiZh27bt9vHHn8hnuahOWX1dTZXcBjmdDbU2ZuxoWZ3dIv8cZLQMHQnaq5/fCxfgA0uaESMAzVLXUGdVNdV2Wr7aJ2L8zZs3O9O6QSci0VP0H9BHOJwrtdjXGR9Vmi/8guc33n7LLlZekuAEM7QFV5W4VWtW2/ETxxVL0by+8klKOtmEiRNl+t/tv4GEaizOX/7yl3booDpnNQx1CDcVifCDhwyyZ55+unF8riXkIqUjQ249YVTUXK9evezLX/6y9e3XT0SjK8GvrZe6q7cySdDHn3xiR44e1TO9AWV5gZe77prilngn4dTz00vSHz9+3EdZCgsKHbcp5EK7hGP8cenSpa6T86QbC/IKFUSAgYPswfkLlGmBJEqSxp/3a5dt9arVtnvXbi+kXrodToJQAwcMtOe+/pwNGTLEOQug8eh/Bl4JyflMiEnIud1AG3JDdXW1VV6SapS17QhVPan7yJEj7YU/fN4GDuwvyUoMTRvrbdeuXbZy5UrXQgD5ADjljz7yiA0YMMAp420WLjsVFtmH739gFy5eaOxmWkIrwlEZxH2l9PNZGRJkViArCDHuqs4UkxYVmSJDtFp1qlu2bLHNWzY7MVIjSYvz+bQkbcSIESJikYgdXIS1evDQITVolUzotXbixAlPSxpvANln1+uB3PQ3CsiPuh2R9Kxdu87WrF1je/fudctZDfU4+WJifLQvf+Urbu47DvScUCO1+dlnO23fvn2uWuNppOsnXE6ZcqcVM7IioCz8vnPl5bZKuAlDrrXKbOUO1IqTrlRV24//5f/ZlctXVAGIlu+Z9e/X155+5mkRsJsVIW0SkgYR+Yz6wo9/9bFt377NK5zUYadOdMIPS61O92mffCeauFYStmHjJvvXf/2JrRAnbtq8VYQ7aaNGjXTmSJA4M12vBm69tQFtpk24u0Yg75MnT9pPf/KSDxZv2LBBhNhlfYSPAYNkuqsvB+FYz93k8uDuHDp0WFqn1nsZvcymc4rUFw63zl26uFSGSlUfKebeuGmTXZbWom9ERRYLd+fPVdisWTNdulp2Ma0kDrGnrzp+TH1bxrgQp1BSN2nSZOsrHyON/ANw0P79+8WBe/w3eAInqFH6wRkzZgTRMqnl/c6dn9nrr79m5eXnvEJI7B6lR2qTtHBN958HIBaVlBsYPuJK/VI2XFPwtmXPPw/AySYhljYWCflMy5TLYv7JT/7NNm/aYrUqy61l5ddNjDd9+gybLFzhy9HgYJ48V5n79+9TvdAskTfPUZVTpkxx1QnReFYloUHCT6i/CyltDq0Ix5DVhg2bVBgj/HqgSjeooE7FxTZt6l1WqDqIwRoLvnDhvFfo9OkzThR8ubr6GhG4j82ePct690ZtRONBZFnZEXvjjTesoqLCVQ0qE6BxmNUtJSQRsBUR+Zk9YrSBEfYDBw+JczdLilfZ8uUr5PSvsLVr1tme3XvFJOe9PMev0oGLFjm2C2icqios4wa7XHXFpaRBz+iz3njjTanA/Y5cqo6CpM1z5szWtZf/Dosx38d4kdRz58q9DpF3vJ89e7ZPrmJTKLYzCMy/fu0GKy7q1Kr9rVQlw1Ivv/SyT0Ukg4GMR44a4fNHMRaZEFpvu3fvcfOf+K7V+SdOu+++e23q1Gmu+qgccS9cuGCvvfaa0ux2AsF5vEOFDJLRs3Dhg26hUR7vUwAS8ai/BxVEUyoqLnh+q9essY+krleIYGvXrbWtW7a6+tm5Y4f3pSdkHVNe125yehnlySDln13aBOJQp8/EoJVXLrtPhvUHAS/LWUbFTZ44yfsp2g7Tc496RMKiphEuS5LoC5GyVCbXLlKf27Zts3Nng6i4UjB6pdyCefPmORFTXYHmEqcER2W2YpTQSHS2eFPmfL6NHzdWV/lsjYUhIVV2+PBhO3MGadOL7GU/mcUTJky00tKe/lsv9ErcI8dy586dyrvWuT8qEhz64MKFbpmBoBQSJG7LJR51PSSCvP/Bh/bKktfs3ffekyrbZ+cvyv9RP804KcS9fLnKDh446G4Ko/BYyhgJ+FUwJhLoOL0KEG/UqFH2yCMPy/+SyS+c8Acz1khjfPbZZ7ZRWkp2tksL7aLfmjRpkg9fkT5UdoP3leAYCc6FIknVuHETfFiM8d66WlVK/86cPmunTp2KNudAYCfn4eHDZY2ShsUI8fIL823ipIl63twAYGb3oHw2TGTPJCMqI+FDhgwW8tNMQb0ko9wtyMuXLysqHByTrUgkHMVUfuqAE6FIm0ICJ5zqdeDAAXv3naX20Ue/Un98wgfDVVnFJV0WOQNyw986feasfSBCL136ntTnHqUBofhdOQhoBzDO7r//flv40ENWIr+LNiW4XHnFli1bLoYvjwfKTorEhgoHEyaM14OQWK4IBAx3Tn1kc2LU251T7pCKLPShLtpCwMLHgkW6uU+QDyKEh2idCkNfkzkQSBD3dO9hQ4cO9d8UlgqEcKylcGTqmVDsHTfWYczLRUQuW6S6Tp087RyOdUls3mO8gBCfaORpS6xnkAhIXkeOHrH35Ods3LjZx0WFVuXmvN74l8DroH+0mRF3CLx923Zb+t5SO3T4kBPNo/BfOwDSKZvrvffea3dPm+Z5prriaB+TO7N+/caQLF6qoT2Fg1EjR2TGWWKqPNdSEA5IxdJlDBw00FWm+8B6Rjtqdb9PTOr9ahY8fvwIfU15R4WUeJcllYePPobLctUX0gfhqEBqAHn17ds3LE9xqGcoQC1t3ryl0fjAL4TTe/YsVb+20LrLhOZ5yiddE8RvmhFLJ1jvQh9WJbclT2WmPsSj6TeN76bQuVNnZ0KQSd0JtK1aViAj8WvUL7JKrXlpbQAZI0K6lojBFj640OtOvSidf1ekkjdt3uyuFE8hBO4Q3UafPr0dN5RNGtbpnDt31ocDGxrCd+U5zAuufRaGMvWPITKsS9JGS6O1TjgeQQhGPyrOV0Qa/ceVxuI8Z7koAIyUVLruZdQDnQxADKZtMDC8IA8NduzocTt+XA623vObThfCzp4121VqltwhiNQ2UFPmunZs36nygwk8thiPZP369/PJyq999as+UvPNb3zTHn/8cdVHlq2IHsykO6kg+liMmlBDpG+/3AC9pzwFtM8MmfyOO/0OaTCp4tPCyWnFDSaCz7EsGbBwmyGycEsaVyj6OVoVkkTeI9TPMyqFAdQgohGfbgYjCOA5IJzHHSMa52X1VTHSXV/r9eQ/DAmIkQoFqOSlS5Vu3jryvC8LxMBhPXrkSlCD6/TLIjRqkvE91BXEmzlrlsdpy09pCTAF0oa/xyiLV0KAKmFkfujgofbUE0/aw3L4ZyvfWbPu8YAl/JWvfEUIGaEySYNCZajO7KScfgwLNMK1gLdJf5jqc2bP8XbX1KhbkQqmOlVVNd7nO+g3ceky0EJotcS05IOmuiLXIvAUuEW7MWSGlKX45IIRyEIj9wszaLwjIeard9YZUgAIyrBVFAAh6CCFxOorHt91t/4ogFle1B4iHxWJ52VHyuyyGKK2TtIpFcLwUG9JJZOKFEV5GBx+zSm7JTB2h+ReqRanSniY+sC6K+laYoseWWTT5PD37l0qjlWdUG2CNEzHNApWMSlwROHcSiHu6PFjdkYMSKntl9wcaO+wocPlbAeDIsGkrla9Dh7KCKff1IBVAd26dXc80TTazzuYHolzHHnQYwXUKjRItSEdWg1XytGZgUtcTORBuIueCIvPQREhXC+Z6z4L6KIbiG+Qar0oRDrt9YznnVTJkpIunsYr5BCVrK2tpjC3mLgfOmyoOu1kkPAf18QcrYHn9KmoDdS624L56ktwVSZOsAkTxys/Oa8wBoG8qJpCUXG+v580aYJyYoCg1mrERHVqz3k50WfU31wr0RKUlBT5so1CGFf1AC7Lx7sIghswlEIt46MidTAQGinal+faDVcCcGbNKtC7dx/FC0OLoFb6e/xkJ7wCOYTE6Y6HDN3QD8FBjdyvf8XyLeAyRylTEnpYr04VFUNFEqrzVTEnmj+Jp7yvqpILoDQh6aC8Tno/5qFCglWIh/aBusB1OKRkXa96NCgwZzV0+DAr6VzSKhevhf4jFBcX2cSJ4/RehFPdkVbisiIbJCa4ei2aA31XSJDKgInUvqpM/Xm/r8y44OYQuE9An+fqkB85haIVkLIE7pIpIcya85j8MzTrPyQByXN/QZmBrKLi4kb/SrH0R/+Ag6hCFS2NFPhgtO5ddaoxqZKMGfoouoOX5KFTpxLFiUql8HmAynBXRVGpB380DN8ncWYyFACybMxbD7E2vWGUGxflR/2ij8uSfS6kqqJdqIcQJk4SQwshdTVolnifC42CIKA+dSqT321E9fp73CwNgb4xF4KGpFbAukKcQUY8Ds6hIPIJUET9wHdJFeHilVA8TP3UMK4RJyXOCvKfoQaQ4MZwFaAuIJ6NJU6M7K9Y/SqOr69JzMpJpQEei3qpXadOn/L7rNp6wwxGSUbQa4dob+QdufAw/uMvtd9B9+l3LlNxyW7bBK9ndp9i5pSWEU5AJw/qauqldxlFhm0UvM/Lk5jzUiGQQ5XDqw/7lApBTKkgiXRqGKGosFiI6SbEYbBEOgaFfVFtBvE8ru0B5fYoLbWu6ujralRXGEfFI/lb5SNWXpQ/pr7FG6xsWBeTAsx6/NQJH7t0FFBvv9RbFznHGEqUDDK4Xg1y23bhQoUSSMrSnx4Wi7Fyy6Y84jqkqwDNhKPt/nMOhN8prSLcO2odYL4sr+zaSDgajPWY7hMSUU+MgifpArgvUr9Hp0s2vEJKq+V8+sKZTBo9jbLp06dvJonKVxVGanARAgKJAdw3ldMMlJaxT6zWRtAzlnfDBG+/9XPVs2lBaQKawaJTBsL3H2AUH63CyiqxkOrCOCnrPq4HEioOHDzg+KFd9HW0i1GSXIBHwIlv9vCEkRgp9xEVKpgDqO00VNgcQlMk7DRJnAqg4AIUfz19nfQ+Xr3eYc2hjYMOZJgvC7LEenTvmXFMqEnMW6ZrYgqkiQgQ2DtcZxeKlNo6dcbzpaLNIdK0BBAD0caOHevI9mi4UNlgNTPTP/rRP9lROfs11bWuNGDcssNH7cc//hdbtuwTd1fcslNiLLbSHj1tzKjR1l1S3BJNVwNwWlFx3geMo/+nTfnORAMGhB+WQjB+pXDC8ozAMwTsozZ06dJVeYVNkCpAnryHwZx4epdXWGA9epXmSGCU6ABBkDjGGp2yTpCQOKw58J4Ao6KTzOFu3bsS0eMDqDPM1pYj3yCbqRT3oaRaGOaplh+4ft0661QYc01k4dcsr/bgjilTfHQhGFIq0zGB25InZ3q7ff/FF+3F73/f/vv/+J/2vb/6K3tRvzdu2OB5O+Q0fphcksmTJzd71hZQO//LsqiV081yC5guVzIg4pgxsQg2AVbwBfm7xCMkgnTt1s2Zkd9uU2R5o93wBxMQF6lkqC0G8wOayKFasUCTCIHAKKBEXHS07LC/z0sGhOrK6MigQQOzuDzE8qnzea/zPmxGgwgNNnjwQJnOvb0CEC0ZIr/6+GOruHDJJcODcyOBPLOW5ABZUu6cObNsuFyAsErVcIkezn2NEFkjy/jYsSP22a6dkr4y9W/xzA2DhB3Vq1+/vjZ79pwYBBDi2iqPZyCWkR1HsNeLetb7Wv/CgiKvMwTjOUs6Ro4cpfzUTu/g8qyi/ILqc1y/hex83IJi5cz+uF6u4SJP8g4CEhdVngC7gcXHpZK4ViMnJAbRjHj0lufuk3b6A9EYAcxf0Sz6J5caheJORT4Ox6wt8ak4aVhazXpMfifo0bOHjR8/wRfHkjYGVmvt6JEjtmrV6iwuRP58YCJ32rSpdt99c6xvv96qk1I6I5AJ19bgPMTrrI7U+/7759r06dP9/bVCIiS7cGNQIdQ0SzuK1Tac/K5do4/zMgUsCj5+4kTgTw9Z9sFSfAY1UK3RbBg6KnhQ/WauZCFI3YXjElm/qPkEOQpQSBGl+/ftZ0W6EsSmrg5YW0kHyxhjcEgUwjbYXr176jejLdFBo1YZzWYQOmELTpo5c6YzBtCUR4H94hfvOJcBIaVXB6LA4fPmzbdHHnnEB3zh3Gh8U2gO+q1nQpuV9uxlCxcusgUL5jfWpz2gPhHIIdRambTPa6+/5kh0KUQa1RaGvx64f567JQmuXKl2XPgUTqDCgZVdpTnDiPRx5MHg85EjRx2PCeiq+g8YoGf4yE3PGwnnlVMYM3pMJvohhfh2rPZigtU5wQuPGjCgTP9FAyiYzFGXe/bstdOnYu7Nm6x8WFPJmCFcFsUHItDpP/7xj32m4XqAOi5Y8KB9/WtfVz1YLtjUKIC8EziP6H2fPn3suW98wx5UOtQRzjd1o+F+vQrAnGgSll6cl2HCkrvQXPXOAHdMmWQDB/XPtA+S2eAz3QxiUwGyd3WoP/pWLG03TPjTSwauiQ8+clUi7yaMH+9XakhbCB6jsdK6sAmfTBqlQv/wu1hbgoFCf+IPBd17dPO+plu3Lv6O5+S1f99+md7MjMsnzLifBi1YsFCmd3/LV98Qy/5Y4VUv1+CgvfPOO4pLJlldrgJUFyahrKHDhsva7CW1TloqGIFRe+mAxmcwYPfuPWzE8JGubhknxWAir9T8toAycG9gBJY97Nq127sMZaqgMgoYvutj8+fPF76wwrENkJ5qV3v79u2NJukZ/TDzmkw0M58X6NdL4Qg87NjxWeDco8dITCdZwqPVb6oCmcaLkknpkBowaPDgrCOkwnWuErASt23bqoJRA14LT4NqpXNHmpzLFHhDfJbanRKHAhHbXK3NX7DA+0VqQBnJn6IfvR6grsCePXsk3aeysiMvgJ1EDBB4bRUZCTt/noVFe7xCwklgAEjXdiCVxXKJ2haWJG2Z+8BcWbrDFBGsRj+IWQ8OGLv0Ary9bJYZJkKj+pC0yAMgnuM45c8/hdLSUjcCfalH0iLKrpFwCSAGi1wgBIPGEIuxgZOnTri6tAZ1kB7g+HwbOHCgjR03zjtROl5wAPJYFLRLaoLpHGXlobAwz5etEXzqR3FBOO/6u7q7dqBRcODmTZtiqbYeRJCPqY782WefdaRSHyLzx5zW9u07pPpZBwkT+1uHxOltgTOD8hgwYKAzMkhH7SE99917rwyd+7yB/lx/qDsWB+/cucPTErdAbSc+XQtdTMviMOro6xtVvN7THtZbMsPAA343nx3IBT1lvzIdPkvQVFOrV+GVVbFtCPOURgA0vHPnLk5o3yKbAcSAc1gyxwYQVi7TdlQOG0AWL37M7p97r0srk4yTJ09ySWwfWiOVJ6dOn/R1I87VmQixHGDChHHO2ZMmTfR+rF4uAW4BsxQHD+63M2foT1vn2R7ADKhiDJqJEyeozr2lPYY4Az711JPOhEGgUKucZbJixQo3VBIhyIM0+HlpyWICarJ+/Xo3APkFE7ngKE/KIA8Yz9NkyVqtq+Ql/ggrdMsZiyOyAhWiz0K6evToqfzJIbic4Rsc70OHD1uNdDsVgTPpxOtl9g8cOMDXM1IRHOWCwny5B+P0fJAaMlaq5n71PcM9L3gi4wv/Hc1qjWTUxqbNG23Txo0+rY9ap28B/uDpp9wAoLx169b6M2+8mIc+qEfP7jmOclYmd6ngFoAUYfkxyYkN0LdfH7vzrjtt7v33y/eV2lc60uIeHD9+0n71q1+5ZIODyDKG5ubMmeMuiBto2XMIdEpqdem77zZOZAM8H8w27ScWqx0FVqjyHT+eqi2JE+CTUAhoyG0Mwzwb1m/wpQKBy3iHmkTqRo8eHR23CgVQEXDSp58u952oYVXhx9VLUktkZd5pc2bPzLbOtlmVHMjyVHrmAulHWWKXxlEplur0LMVnHOdx2cKExQkBoxksML3oS8lZJpg4m/B54MkVb4C6BqSAusOwbGT0dimLCxcu+QrqjWKmiJ6pN5UPbu688y6pb4a5yC0YhgFlli2yXgVLNdJ48mwhbPNxy0jZDuEAOAM1lktl1qNs3brNjjISwJOsvcQZKgOFZWuMI/I4RiNYGFMtwn1qGzZsDBNa76gMFfQRicY8Ip8oqS2I52mJHfsbjh0/5pIWEO/vuOMOWWw9PC9m5KepTgwhJdWE5sD1wL/y4lIjrgIJA+TpxpQC955S/3FFzTEMtmrVSjEFk6l6rjZSHsvxWYbI2h2AdwSAJfkYMeH3ZvkqQ6Qb37eR6SjECwxoRbj0vrvUSXS6El3l5Jwu7jh54oStWL489HFWOGqE2YLJQhqrn9j44FMTSkUlUKNsavfjIJQGJIY1yX38psJklxrE7+xOIRMnATUhz9278RXPOHKIi19HPjBcWnrBb/rr6NxTfgyaV7h/RVryIs/PA1JTQ/7o7wo8UG+9EIoqZfiAlwvSSikubWRtJczDmCh1zAWknr7w6LGjoSK9PhHuu+8+pe2W5RX/eVlZaFPiaAbqaM7sWd4/sV3IWyiokZGyTVK3Y8cO/01kf6VcWZY35945Xkn0eCzHUyHy2RhshZhRLg1OISpE4KVf/EdbQPx852hMc0Zp/Knng5M/1FdzATSe+Fi948aN9WeRewyEoy4hYDxtr7wAr5OCS5rf4zgT9EcxCswLQjSAN6gSltmNl/PMmGgvuVi5Y5A0kUXCW7Zsdk0WD2G2fF+y+MADD6RHwbZRcGNok3AAGTAQyrkcTkkhgjTcslcA7mIPmHNI1qECLOhkH8D4CRN8SYFLnlo3UX1gSSfG8ZpKb7rLQrq5CpCqrOyo/KRTUkPUJqQRK9ZPo1O/E0QLwPGfOXNWdo+Kpl8JPyu2hkXc9pmlOSQmyQ1kgRWOwUIZtAHnnqX48x6Y5yoy5tiibNQ7lida6PRpJpRpQwTqvkAWNmtBpWUD2qham+ecRFP0v0pC1zJ+xhCWVzJDEgtsqMBg9W2NU/96TRT6GOalGB3o3aeX75NDehmRhyESOM9GMW3VrU2g4atWrpbUh7MaKbHaiuzJJ5/wYS2kMuoKhEXHqmXSElDtGFiMpEy+Y3Ko7cb41weUw6w/ozG0j/FbFhFhiMydK8ecnbjqRrLYjjMGAj766CPv22JAOdpAmDLlDt+1hMtAlVzK26haDuGCXAFgM6wbtgsxksJmRPq1xMxUgMFT+rbhI4Y5Z2Pqk4b7Xr17ZX7LWN/4gKFTwBYtpSUE+VrUqMXPgND52KNcmaj9dPmn7nrkJpg4caKsvXudiahDbqCvOyx/j12v5KFa6lrvcTlfK5bAZxldFwQyvJ9Wm30IUP4sTvb4ceNdTbOcHEbhD6bBdWE2Hkvy0sVKxycDHUz+ssPnq1/9qrsB4NDr7m1oXbkm9vdKEJDPpoDtxAFrDz74YHC4SkrcSR+zcuUK72A5JYd+MYwNEU+hW/duPkqAX+gqJIPrxRFkw0hinHTv3t3ylY45AQLILc+mTZ3mgwFULWmGFDpJjbFLNJnbDoqDumQ37a8PgTP8x3yFQjEux4EgefiKBcI6zAzyKZedt+x74JCDCxfkxig1zAwT4ds+9tijNmrkKBeGJoAOUU6EgBzCJaCxKLEIqAH6Kvw6LDQkMV+VIcO6uhqfOF2xYrkvDXe+yuEO7gOR/OBf0zuHpnoENK9bI8QAMoPdbFE67LtfYSACbgd+JCM3PoyWlU+KFIplFDCSwmYUlzjiKDn7JNhT51u/fiPILS2njTm3EBCDat26dXbm7BmXPoYI0Vy04f775tr0u2fktCEFICGmCTmU1A6khPharEns7Bv7cG4ZRkoZuYsgzj1x/ESzigItfv5GwEE4Z86c9S1KvqYle04jcbSxaBkLpc0eeKfg/ZcQRGeP8UJ8fqM+2YuA9LJs72aD6GTsKzhyJLalhQaKVowdO8YeWrTQ7QHql8LVMJhDuOAYb2xOKMovdo4t6VRsI8W1Tzy22IYOHqJ3+X4OVbF8pM56VyLjABM45DT9CeHK0IM/J8+c3FPdWoZmwAOmZRrsoDiWvQNIbrQLBJiMn6neP/As5Y6QuqBmfXVXxlRl6QZCQKS6Ad2zgYQtVyAzhWuHVFpLiDIA7jyGcMMUDXsJ2BrWwBJ4qc5hQwbZ03/wpC9n5yQLupioduCL6a+mcggBTXftQKI+nIsDydDN4scX+/R/mrLA7GXIK/c0hhsNDNiyxQrpZlgN4gH9Zb1iBBUXtV121J9Zj/DzmFqir3Z9IQSy0oylggyd3UxAwieIcejD6OtY7s/RWl/60pd8ULxQfRwtckLrPwL37cE1H6YNEBVOxYQFgQwd0ZHSv2CZoYKcyDeBgPv2H7RXlyzxwVsf11SHzuXhhx+xhx56yPr0LnXmcorQ4pat0rOLFy/7OcgcTcxCXfG9XtTbWFm+zz79jFQum0JuDjAAxWImGAR1f7nykg8WxFhqtnocJlNcmpEg695bwXVjGKLgFzElw2QlZjhEQ2cn6bwZgFTQPyTr1HcMqa1IUJjzbZTrWMiCgH6a+rqPlDEZTHCkrMz7n2tn4esHCICRxxzhuLHjfEtY2jSSZs5hIl8BJ/X+eXBdhEvIgXhIGgTECkKFJqK1icDfENj+BZcy7YEVBlAH1PYQMVAx5fvTDGh3i2qAFnUb1rNHqQysiXothNVT3wJpkFrfw0d/hzZBq9wUUPngilEWBgwSrrjm59MX0+/6oyDeVQh43RKXS6DcgnN/3yhANTO6Xna4LDuRL8oCsCwZE/UZDH/SGjIe9gAQr2dpqU2S1EFd/lRrH1M9eOCQlZUd0/OQxNsHEKtlzVvDdRPuVgFcj3RxZfrmcNkRoZjqRujZo5dPhjYOt9He9hk0QPRgkwd9MmdusdUJazVcjXN+DBZ9UZD4xgP80BSSqm4erhU6LOEAGsKwGgfM4HPlAn0bM/FOq3bay+MUEjDjwxDeqJEj/YVLtZgDJ5wjpTgL5aZDm/Vt82G70GEJRx+GIcLoOSqMjfIotrT8jsMDGEVh1rlRSHLbjlrVJfcxqhZXADeG/tlHZOj4FCNPvmrZkaN+MCinEn2+svr1AKFqCrnShgRi4DUP7UGHljiOc2KNJoZJqMJEgji66pVXXrFln34q1+SMCJKhWPEgECHEMYDfnIvCENfP3/65rV6zWojBogunm8BQGiqZ+T7iEzoqdFjCsawBRB6UVIUlSVVD2rgyF8e5LG++8YYvpuVEJBbB8t0aXCJCQjzX8xUXbc2adbZkyes+0MvAbohjE3UYvoOwJ463Pjuro0GHIxycD9Hod46fPGF79u+NMTM3lxVYWJitpvZFOrr75JNP7NXXl9jmrVvt0uVKp60fRK1k0OfUqbO+M+jNN9700RfUJNJGHlxi1w85NUgtx0l7GEX+RP9x7WjQAQkX0naRPqzssJVXlKuWYFcvhdzCIhakgszw5yAw77ft2GEvvfqyf5Hk/KWLPqtRU8shqIfs7bd+4d8FqMiWv9UpfyzUZkRTIM9Lly6onzskn7EiRjMEMFNHgw5HOEiCic42pt17WC4OxYLrOSKJpd7jx491JzYhlGuRHFpOGn/r7bd8B9CJU6f8E19LliyxjyVtHlfBc+NeN8yb+R4/yoQB9JwrK7DTqmKidkTocISTfWVsame2+tDBMEoSgdh6e88999jTzzxjs2bOlDvAMjx/5Z0axw9funjR3l+61Ja8+pq99trrtn37TsWJLVEwBAlQlaNGjbBHH33Y5s+fZ927d/MyQsDyZKCUGUfIY4F6BTogdCjCOYqk9i5VVto+9W2sDHPDREhlJn7Y0MGxNGDMKHvkUQaXH4zxPhEPxPtfhvzNmzbb6VMnI0/UoF4wI82JdnfedYevT5k1e46NHTvORoyQT5e5BSRgvzaTngyxRX4dDzoc4VjZdPrMGfts5071MbF0gn9MGUG02BwfC0bnzXvAnlj8mDvTPl6qPz/eKotPPCSMvotREj5ped+9c2zRww/5NBTbyTiCadSoMX4QD+lBCcvo2D2Eug4Vq38djIIdgnChpuhfWPlcpf7lqKsq0BjkbPB1iSw/YIjL+yMB96hOvs3aq2cvj+pGhzfLqeaqFAuSwXBmBviGK/sKYo8bz0uU73Ab0H+gfue748/0EEfqHj92zJ11p11GvI5CwA4jcYEQzue/YNtlITKI7Eh3AjT4HryhQ9mwH3GZDgEgMDtgOUeEzfTEjzTxnrTcQmzWg7I4CEmGOBAUQrGqis0cvhpLz6gJu5J27PzM90tENim/jgEdgnCOQBAmjGGG79u719UVAJGYQgK5fWUFhv8VO2N2fbbb3nrr57Zi+SpfnZzRyIEZZZw4+j2IhqHBKAwW50cf8dGmSyqD5vM1kh7+7Z8unbPjphgKU04saSg/x2l9kLJjQYeROBDGXBgntnIKO5IA8riyOmuYpI1T/EAixwvyqbMlr71mm2SEMEQFgN+EYs+Po3NFNJdB5YM6PnH8tL3//i/tzTff9hXRSBL94/DhQ23QYKlL5sSy9JwRxh4FRmg83w4kdR2GcEgWZ1GyJ4F7CIQEMvIxoP8A/w4ryOQ841/ImcahxvLjVAKsRggMkZhFGDxosH3jG9/w02ExOrBMXTXqD+Kxb2/VyjVyF37mO2cpZ/DgITZEUu1ugwKUojw+q4b61q0Tj7qlcDuhwxAOQiFp7Ol2EGJQWV26drXhMtd7lfZ2S+/113+Wrbln70BsIgG4ZzaBtZ/f/va37Z4ZM+SnPerH+jJ56phvFJg8P6dyx/YdLrUMmTFTwHJ6ljWw0R/CsBaEwWz6xqY9gR0D2tw7cDsA622V1B87WNxhdsLlyQUYYTNn3mMnTp6UpP1CBsPO2OIl4D19GJLExOgjkrDHHn9U0sPS73w/5IyVXSNHjPAN/nwaJSAoCDEwPsoOH3YpY8MKLsDZs2ca82UNKdudhg0d6h8qCrmFCfR/IyPceugQEgd3QwyOuHc1JCRyiACEwVw/wAqvV161Per/XDU66wf7Ewc1yof3FsotYBOh2xYZYNiw2fH5F16waXdPc8nOBUZpmKx97733fGMIkEsPYvP1qkucTOuQvb3N0nddy/NuFmCUYNL/r//9fx0ffOHf99KJAiV8zb+Ak/n4GBEqLAIEQz2y7uTZZ5/xPsonR92oSQATSDL0iP1r7IdbvmKl77fmQIFgEkpUUD+J8YMY1fIuMghoqLPvfuc7NvOemc4ISdJyGeRWw22VOEecAj4bZ3z40nIhEqIUS81x3N+lqkq7rOfstcbtdhUmxNGfPfjgAvva177WSLS0wyUQG7FBLmVAUJz4RYsW2je++ZyVlvaQ7ChOthwOg7FaarFGoaXxyFmb27dvd2u2o8BtIxzIDP+q3i5XVtnatRsd40yQIlnVNdUiFkjUfR2n3zGNE1+/Yl/bl770rMKXXU1yfkj4ZBmIEO5MM4eXrzQFktB8Od2F7IHo5N8j+O4ffcdGjxsdZfjhIaIWLoMufKsU5kmBumLtolKpVzNpvE1w2yUOdcdoBh9vAEnehYAslwKCJC2P4+olGSIGXzz81vPf8m1ffhqr8kjgyT0LMkHiCBkgWS5hOPT5xono3/rWN/27PoXFRU48iOgpSJ5A+VNPlqpTT9Q6v2833FbCsdQAqeNjQvHttQIhKsYaOekuD1+uVlIjMeBE2unT7rbnn3/epukaG/IhVEhFS1BqBf48p6Z4wjmTrzAMHyH60rPP2qMPP+JHCxaqfJ9gz6VLljfqcs3qNT4C8ztNOJDIiMXFCxdty9YtPnqfkBsIFtEUj92abJFa9NBD9uWvSDXK1wrM0teB1OZEa/0koPGZbrgH+QR2+TBFxE7Q4SOGe51aAuVQ4r79OTMGtxluq8QBW7Zsc+MDV9qRqTvUI6hiiobtuE89+aSfTdmrZ6lXGAMGSfUFP4oXeCStiKm7IFJqGlc2dyX5C8ZoOvKC86WL7e6p0+ypp57yZe0YPoxyJvBBM7knNbJ2t27ZLmnNXgT/3Ba4rYQDgSyv4xrS0wQQBtN70sRJvj0JVQWBWJIOxFkmzdNcM1Aexotu3bXQHxYtZbB9jHKTRDpwVcAyXbd+nVVj/TY91n8e65bCbfXjDhwos7/8y++pf+vsi3saQUgFGUgQ3M8AMF+oYjsUHz1iHi75a0FvCK8EukemHFq2KnscZA+Es+cOS5HNkqwQ4yinM6fj0Bu+meMEJpC10iOl1PPP/+zP/fwSeCcrPqvHrYPbQjjXcGroktff9MU8nTtzElGY8FQHZOESJOKxDQnneOSIkX4eMwfOMBPOZv0mAoJdVEhIUkugkTj1mPocKYUzzjgkn4lev2GjlVdUeEqXfFBCAr8N5vF6qX4YJw8tWGhfl/+IdUqcW0004LYQjpGR6roae/HFv7GyY5xBLINAtfDPhDGSIUQwjoi6hIBOFB6rqiWdO/nZIRwTzE5Y5ukYXfEtSq7+Aov8n4tPdqBdunjJxyY5G5IzRrZt22EXzl/QG/0pspedgw6fI1SIqwifvSuVH/lf/+IvZDTxwQyVk1vQLYJbRrhUDFdUzkYh7m//7u+tSn4R+wJYI0IfM0bGAZ/nOnHyhB/HEdwutJNOpGDwmH6JidZhw4b72V2jRo2WEdPPj+dAAsGjI5vyFBjC4jxl/LCtW7crbPW8qQdlk8bjwigKOPO9ZcmyL7tEannbju12kQ8XKg6Qr372P/zRv7c5c+5pzh23EG7J7ABITwFgDHLJa6/bMf+qfCwjCMOg1J5/4XmbMH6c+cY/xa1lBEXSxz3pkA44HE2KU7xr927jBDq+ZYca45h3JJBFr+R99AjqcIstW/apHwwTS9VZFpH6MK+RMsz3ge0+ffvIIJpg982Z407+uAnj/Kxk5vCIS3R8QGYN6HdT8lsNt0TiUhE+Oaq/ivLz9uJff9/Oy4dD/UAExhrpv7773e+6ic4GDU5/5Xhc5uEOHzpkF/xsyuj7GhGPqS+iM6TF4lYsUL5BzqgKRxsyBurfBz/f9HVJkdTrQ39GfnzEoX+/Aa6CJ04Yr/TjnYkA6vdvL73sX/OvEhMpgX8WhrNV/ttffU/xeit99LO3Em6pqsTw5gr3c2S9GyGgsbbBRy6ee+45mz5jhquqBAwxseqLYwr37NktIh5w7gdiKxJxMWZqXNWxRIH96SyWPSDV6IuOIJgTGZrrT8SiHvSpLIugr5wotwM1zfcAKD8WIwVq1m/cZD/5yU/tbDmHpUri9Zg8nn32S372ix8Vcovhlk2kurUm4LtzP/vZz3y/tSNBj3nHJOZTTz7hC1aDFBE4OpCTwDn6d8jQoT6KQv/GDDZ7t7Ej3bKEMRRIhRHCCewMbXGWFr6fk0Gvwz/k9PaB/tF4xipnzZppI5U/R1c1fV+1iZ9LZL0yO0C/iJpkYIBykGLSsyk/a94tg1si4xCIAAI5ZoO1IgwtgYSYxuF0ndG+FDwqBNJQZ1kQd3MI99Chg/24W044f+aZZ/2EuvTZL6TPv3OnPw61dvWp3DD9vW/UM679+w+0+fMW2DPPPmOLFy+2qVOnScpKM+JjxUZ9ow5BPKQXiaTO6SwX8sKdwAf06ILUzlsBN51wqTEEjsLnLKs4hY+RiOBsRipmzJCFJnCTXpR0SVS/5dMxPj0Tz5EWPuHVs0dPnw3HIAkEk1eEXO5XyX4lLThFnXYXIYYPGylGic+kUA+fy2smaaCGEOXifnBUcIF/CImM9Fzvfa+dfjM9ldqJVN9suOmES0CDkLD169fxyxsXBGL5XV9fkOrmuf+BaBFL8QiOTEkDq5y3bttiL7/ysr311tt28OAhJxyIdOs0I67+o0i/x1pFSqIsWaIV5X5G9EsyOD755FMfNKZeaUlDltKLbAwC+k2+OxDSCzvATAW+PPBCdioRjJGAODcTbnofB8JoBNddu/f40e7+PVM9Qz0RFi5c6L4Y/Rk4c+RluONrWpWXr/gioQ8++NBPGd+1a5ePfASyE6eH/xWqtcH7SgiFJcG6Epcm/cP14OBq+lgWCR2Utcp5ynw7D7Xr+CaqM4Gu5CHgeEJWS38mK5cTguB5JA6pHz6UPQ0DnEmcoFkawBnpJsAtNU7eeXepm/aJG+nzOO2H2Ww+co4b4BJHW4Vwvta/bds2e3fpUknJCtsnKxGChVoKDk95wQAQb9Lkib4sb+7c+32Ojz6VExWSpYqqJCGpeM46TfaY792zz8+Q5JQi/2a3q82AKCFOvmUhLgtkIVooLJz2Opt+N4d487uJcIloN4N4t4RwqCKcZZaL535zmwZPnnyHHxzt23v1DLWGxbh582Z75513/ZsFBw6wQzQsugD6JSZd+Yek5cl4mGCLH3/cvyvHCa1IAJs7eA5zsJ8cScMCdMxmxENq2VZ19txZP3Zqvwwnlqf3LO1lnZVOXZnixR/nf2FY+Xko+oPJeMvCoxn3TPcP9EFL3vgrYvit/7ihcEv8ONQJp8i+/OoSR0oC+qXv/OEf2r333etqBgljDHH58uXqv2KZgH+PTdjzZQxKE9wLdtgOVSDCT7KZMucZreeDenEIKvEURQkoAzOeA2gY/V+1cqXPCOAmeDyQqsieShKPKmUNCx8V5DjFGTPi+wswChpio3y6H/7wR963YsWCPgymf/fVr/i2r0b/jz46yxc9cqPh1hBO/tbf/eAHMiy2ux+XACn7m7/+az9set3atbZm9Ur/EAQbOBhfpOFeOf3ng70iFH0eSGd/2wNzH7BRo0f4wWZYpgDf0clVUeFs8zw+6sAKaM5DRuVVVFywziXRr7k0k4578tANX5jkaEI+9sAKaXxICPbii3/tJwcyOE7/yTIKTsL7sz/9U6UJdflbQbhDB8vsB3//Azt+Mj5LlmDG9Onqkyb7Hm2+L8NX652T1R9BXmYG0opmpA4kT7njDptz72y3QvncCVIHJGLRHG6x/gDUsX75PQjFKWd/AafNrlm9zonICuc46DvGQvnOgqtCIR/mAvybCnPm+KrqDz74yE8x5ygptmOhLTBs/uRP/qONGTM8BgK+yIRjqR0+Dg1977337WxF2uEZSOXIdzp0Pojn7oG/axAS9UzXPBEQ36+LCIYDzBcax44eo76GsUkhRP5dKNAmwiVoIiQLa5E8IdERiSyJgLX4XnW+X4FFQFirqFOIjJQCONzUFwmE6LgrGC5shNy8eatrCjQAFiiHCbAEfvETj3u9qN8Xl3BCDlLzt//nB7Zjx06rrc9WCGeEa4S8bKNhVpM61jqKaPnqO/i8ySK5C2xqLJLzC/IKHDFEZpZNV08HcpoQ1JJwmb3qUUmD6qwXMaERUokEYgghgQyCE4f4DK+JdM5YMBlf60I1wpSpDIBblg7+l//8n6Qug7G+sISrulLr0yg//elPfaS+zgnWViPoh8S5uoIcRtvvmn63Pb54sQ0eMjg+0q7nWJxOYJL4Osmmqjsdc4CFrQmaIw/i1asuSpDVB6MDwpAfBFwuAq5YgdlfqecQWWRUdFQnjBiuh57peYy2kLTBSnv1tOef/5ZNmTL5i0246qo6P7Ji+YrlVnmpUioHpLVsBBjhRIR86ybz+66pd9m8+Q/YQBEMYsH5NJx+j76E1MHovwnhIJ0AiVMIYGQnGIhB5PKK87bsk098w8eZM+U+oM238Dy2KuCz5X4fF4DPt82ePcu++c3nnHAQuHnZNw5uKuGOHT1h//DDf7B9ew+41cepdMG50RD6OLi5e/cu/hmXufLnOEsSzqZSgdMgkGTN1WSWNAOeAzkPSZj9JGWYOS0hGEhkip9Ijz8lYSSOepqdO1uh/m+lmG+FlcuNwPDgIGwkFBWa+sEkXXz15I//+I+ttJTpoULVWXWILG8o3BTC0W/QitWr1tgrr77iJxiABfoUlyIRiw//0VdwasKihxfa4EH9hAxFEyXiY0fKhwZ7oyUFTrhMTQqyGHraAitBAYerEY6Q+yaRjgtv+YVBCqFw8C9erLRPly33fpD9c/iYUVesShhKqfSPzSSLFz/hB98gwT5NpNwSs94ouOGEIzdXOSLOSy+9ZKtWr/JGex+iBsaQUnebeld8NGjo0P6yHCNtU9tSlUBGKNdcogHEIITECVq2QpGDcBnkvs8yaoukgL9W/Kzba4qnF0ggMxwMKJTLSmbuj4qTBoMJKZsqdf/CC9+W6sSYkprXyw5NOHIiUEXWk/zTP/+z7d67R0SMSjNOeMeUKfatb73g36Bh+l+Go9WI0EBT47IqiaW90dzGk0bIrXSzd7zIHjQjXAsgWm4eQMqHK2hxzCg4/aRGkL5kXTJIsHLlSnfkGeuk7h5fgI/5/PMv+Cm2SVXeaMK1167rAhpJg9z6UkDiPtu1y86Vl1PjqLkCIx586Jxdo3xAneFG9uGkeTfLk7+UxwiGMEAAZWAjYSQHEhqyWE1EyF7wLF1bpuZ36xwDUr4g2nGteuS7u4J/mZeZ+g1y/rvYw48ssifcb4tv5PAhCHJmSI2VZAluNNGAG0K4aCSVg0sb7ErVFdu9e7eVn4+vGqf3pb172eixY6ROIl0QpwmFyWSIK78DmjW8Haynx229vtq7qwGlouq48Yvf0l/xEiat9wO92XPOIAJvYV4+CsGAddqrfjPghhAOALlYfTSS4+YZc6ytlfmcgyksR58FyJCQIBE2+gMFZeKviZQT7/OwTtQUciH3eVvv2wQvK2L7H3XxR9xziWcsBbxr6lS3mnmO5kH6mC46cGC/M/LNgBtGOAflRjXZjsRCGp8YFdAgdsRMUwO5pme5kkWI/4Nsjhh/Em8ccm5zIeI1h/S7nSSNaVoGhxa49jp4feIPPw8mRUUyTTTljik+5YPF7L6b3nHEBoft+LjlTYAbSjjqeEFqouzoUbt46aI/ABkNsqsHDxpoQwYPEuHURzRiCMgc7ECJ/x/ES/ctgEcKoCOhJHvUDNLvVu+yRC3fN8ZpC89ONHdI/C++NOV37gr07tPXRo0apV967paI+agLSys4Uupm0O4GE67BLSy+yYa6oMJIDn0Bi23w3ZpDM5QJmv/OfdMILZDQKs7VkPR5CLxGBCc1mQLW8T33zNQbMogaYaDxoQv/IuQ15ns9cEMJx7JsZohZpx9Ei+csS2B1cHFxp3jQCETIRb3uY7iksbG5bx1aPGj1/lrganlfb4ZqJKMnbIhk/af7qzyW5F1QdwE+qqtluFDmDSTgDSVcbF064h9zcEmDePpjpXAfqRNplTYgerpQqv6z+bUNSO1vM0r2MMVphq9ryNuB958XJ4EaiWHCEBdL3yEcbcYt4nA4jmVkJVlNLe5SluYGwA0lHOYvRItZ5zCbubK8oLWaTNBEuEYkJ6Q1YjygGRFaQHqXG4BWzz4n7xaPrwlgUiZSOcGI8dfUdohIX8epREwdJWm8EXBDCcdwFofAxHxVrS+iYb3G8OEj/IRWJPBqcC1Iy0VurlDk3reVz/XkfS1xGwEKCYqKitXOYT5vCJGwLLEwu/fobj26cxhObg1/c7ihq7xYUMNpd1HxPBs5cqQtWDDfVSVnctHGrJ3tAq+bRWknvscDwznv24naCJ4mbgPaSeDxcql3lYx55dXQDSND7KuDaen3OEqYdTF8eZ8+D0LGYqLfHG7oWKVPecjprlBfh4rgtDnW5fupcxnFuN6YqnccSAjEevZ95eXnvNtgr3ovGSwx9ZO1/QY1/qZM6/webj7c0D7u93Dr4PeE+4LC7wn3hQSz/w9fhEh8wP34rgAAAABJRU5ErkJggg==" parent="1" vertex="1">
          <mxGeometry x="314.61" y="244" width="26.73" height="31.6" as="geometry" />
        </mxCell>
        <mxCell id="OeS4Q1I3CSxu7Xxp6_FL-15" value="" style="shape=image;verticalLabelPosition=bottom;verticalAlign=top;imageAspect=0;aspect=fixed;image=data:image/png,iVBORw0KGgoAAAANSUhEUgAAAG4AAACCCAYAAACn3f0CAAAAAXNSR0IArs4c6QAAAARnQU1BAACxjwv8YQUAAAAJcEhZcwAADsMAAA7DAcdvqGQAAD6fSURBVHhe7Z13kF/Xdd/PViz6ovfeQZAAAaKQBAEQBBtImqSkSKIkUpacjP+KZ2xnkj88GcsZyk7+yB9JHMszlmXPyLFkFpBikUiwiCJB9N6JXha97aIssD3fzznv7v62gYCEspR0Fhfv/d679bR7zm0vr0Fgv4cvHORn1+sCaJ1CS7jau99VaA8XvwmOfi2JI0kK9fX1fs3Pz7e8vDwPQLoCufe/S5BwlID7goICvwdvQFv4uha4bsKlyhBqamqssrLSr507d7aSkpJmBPx1K/XbAompE4Cn8+fPW2FhoXXr1s2vwK+Dp2smXBCLm7ivvHzZtm7dYqtWrRLxLtuIEcPtgblzbdjwYc0qm0vA30WAeISysjJbvXq17d9/wIqLO9k998ywqVOnWteuXZoR7lpxdZ2EI+TZpUuXbM2atfbBLz+0M2dOW7U4qUtJZ3vooYW28KEHrWuXrlYgyQN+T7h6Ky8vt/fff98+WbbMrlypsgbho3ev3vbwww/b7Fn3WBeIp7/868DVNRsnZJyXl29VKnjjhs32zjvv2qnTZ6y6TupAhV28XGlHjh0TUS9LXRY0Sl0Twa+JP34rAUY/efKUXbx4yeqEh1qFU2fP2C/efcfWrd/gOEtq9Vpxde1WpRihtqbetm3fbm+++aadPHXKqmtrrV4SmEInSV1BYZHuVQn+UgX0zjP4LYWrIzxPqrHYOnXqpNt8RwWxGvT83LkKe+Ott2zvvn12parKiXetcG2EU0k1NQ12+PARe/ONt+zs2bNRCSeIMpFaHD16lN199zTr0aOHnvM0I1YWx2v7Wwi5RGsKei4a1NeFquzZs6fNmjXLRo8apWcimd7nCS95Dfl2seKSvfLyK3boUJlwXOvprwWuSrjGSui+orzC3nrrbTsmdSidCd0EiHe9DRk6xB577DGbNHmSLKUC19NN5WeEyyC3gb+1kOEsWpjnLsC4ceNs0aJFNmzYML1owklVdZWr0Q8++EAGX2X2tAlP7cHVJU4FwCHV1XX26YoVtmHTequHXfKzjlRRhg4ebE88/phNl7SVyFpKHWxNbZ3V1jfYwcNltmrtWjsoq6qqShxVD1GjQr8NBKSthHq1df++A7Z27Xo7cOCgS5yTR83LyyuwoqJiu+uuu2zhggetjwyTuup6qxOOhEpda2z7lq326bLlVluLuhSOhCfw3x5+Cr4nyO5bAQVXV9d4hf7hH3+o/iv8juCoeuvTt4/NXzDf5syebYVFekchqrHaoQrU2c9//nP7t5desuWfLvfQo3t3Gzx4UFic3ioaFQ3/IsOVK1fsl7Kwf/SP/2TLZDmuW79ebaL7GOPvaR3dSWFRkQ0aNMiNt6NHjyndZcWjtwMPZnv37LVR6nL69e3nOIFoaLa28HN1iVN8+suXX37ZqV+LMYL1I6KVyOG+8847be7c+62oWOpRT1GbcF5lZZXM3w/tk4+XWfm58yo83+qUbsmSV+3c2XNuvLS0otrjrI4O1BunGiatU6fWWQZajTTUO+8stbffftvq6tTRCY/oJ5RVcWGxzbv/AZshDdW9a1crzC+U1MkKF95qJHmvvvqqq8zaulrPrz2mvirhkNqPP11mO/fukYp02nngfvjw4fLZFlhJSXFO5nmqaL07mh9++KGdPXdORC2k3g5OeHTIFwzaY670DIlD7QG1al91fa1dqa225atW2ceSwBp3mfy1q0ZwtmjRQzZixDAXAqSOPzBz+MgRW71+ndXxRJF51hZLt0s48Hv69Glb+sH7ll8kiSpQVDISZ/Tv38/mzZ+na3+pPQgTFiZh27bt9vHHn8hnuahOWX1dTZXcBjmdDbU2ZuxoWZ3dIv8cZLQMHQnaq5/fCxfgA0uaESMAzVLXUGdVNdV2Wr7aJ2L8zZs3O9O6QSci0VP0H9BHOJwrtdjXGR9Vmi/8guc33n7LLlZekuAEM7QFV5W4VWtW2/ETxxVL0by+8klKOtmEiRNl+t/tv4GEaizOX/7yl3booDpnNQx1CDcVifCDhwyyZ55+unF8riXkIqUjQ249YVTUXK9evezLX/6y9e3XT0SjK8GvrZe6q7cySdDHn3xiR44e1TO9AWV5gZe77prilngn4dTz00vSHz9+3EdZCgsKHbcp5EK7hGP8cenSpa6T86QbC/IKFUSAgYPswfkLlGmBJEqSxp/3a5dt9arVtnvXbi+kXrodToJQAwcMtOe+/pwNGTLEOQug8eh/Bl4JyflMiEnIud1AG3JDdXW1VV6SapS17QhVPan7yJEj7YU/fN4GDuwvyUoMTRvrbdeuXbZy5UrXQgD5ADjljz7yiA0YMMAp420WLjsVFtmH739gFy5eaOxmWkIrwlEZxH2l9PNZGRJkViArCDHuqs4UkxYVmSJDtFp1qlu2bLHNWzY7MVIjSYvz+bQkbcSIESJikYgdXIS1evDQITVolUzotXbixAlPSxpvANln1+uB3PQ3CsiPuh2R9Kxdu87WrF1je/fudctZDfU4+WJifLQvf+Urbu47DvScUCO1+dlnO23fvn2uWuNppOsnXE6ZcqcVM7IioCz8vnPl5bZKuAlDrrXKbOUO1IqTrlRV24//5f/ZlctXVAGIlu+Z9e/X155+5mkRsJsVIW0SkgYR+Yz6wo9/9bFt377NK5zUYadOdMIPS61O92mffCeauFYStmHjJvvXf/2JrRAnbtq8VYQ7aaNGjXTmSJA4M12vBm69tQFtpk24u0Yg75MnT9pPf/KSDxZv2LBBhNhlfYSPAYNkuqsvB+FYz93k8uDuHDp0WFqn1nsZvcymc4rUFw63zl26uFSGSlUfKebeuGmTXZbWom9ERRYLd+fPVdisWTNdulp2Ma0kDrGnrzp+TH1bxrgQp1BSN2nSZOsrHyON/ANw0P79+8WBe/w3eAInqFH6wRkzZgTRMqnl/c6dn9nrr79m5eXnvEJI7B6lR2qTtHBN958HIBaVlBsYPuJK/VI2XFPwtmXPPw/AySYhljYWCflMy5TLYv7JT/7NNm/aYrUqy61l5ddNjDd9+gybLFzhy9HgYJ48V5n79+9TvdAskTfPUZVTpkxx1QnReFYloUHCT6i/CyltDq0Ix5DVhg2bVBgj/HqgSjeooE7FxTZt6l1WqDqIwRoLvnDhvFfo9OkzThR8ubr6GhG4j82ePct690ZtRONBZFnZEXvjjTesoqLCVQ0qE6BxmNUtJSQRsBUR+Zk9YrSBEfYDBw+JczdLilfZ8uUr5PSvsLVr1tme3XvFJOe9PMev0oGLFjm2C2icqios4wa7XHXFpaRBz+iz3njjTanA/Y5cqo6CpM1z5szWtZf/Dosx38d4kdRz58q9DpF3vJ89e7ZPrmJTKLYzCMy/fu0GKy7q1Kr9rVQlw1Ivv/SyT0Ukg4GMR44a4fNHMRaZEFpvu3fvcfOf+K7V+SdOu+++e23q1Gmu+qgccS9cuGCvvfaa0ux2AsF5vEOFDJLRs3Dhg26hUR7vUwAS8ai/BxVEUyoqLnh+q9essY+krleIYGvXrbWtW7a6+tm5Y4f3pSdkHVNe125yehnlySDln13aBOJQp8/EoJVXLrtPhvUHAS/LWUbFTZ44yfsp2g7Tc496RMKiphEuS5LoC5GyVCbXLlKf27Zts3Nng6i4UjB6pdyCefPmORFTXYHmEqcER2W2YpTQSHS2eFPmfL6NHzdWV/lsjYUhIVV2+PBhO3MGadOL7GU/mcUTJky00tKe/lsv9ErcI8dy586dyrvWuT8qEhz64MKFbpmBoBQSJG7LJR51PSSCvP/Bh/bKktfs3ffekyrbZ+cvyv9RP804KcS9fLnKDh446G4Ko/BYyhgJ+FUwJhLoOL0KEG/UqFH2yCMPy/+SyS+c8Acz1khjfPbZZ7ZRWkp2tksL7aLfmjRpkg9fkT5UdoP3leAYCc6FIknVuHETfFiM8d66WlVK/86cPmunTp2KNudAYCfn4eHDZY2ShsUI8fIL823ipIl63twAYGb3oHw2TGTPJCMqI+FDhgwW8tNMQb0ko9wtyMuXLysqHByTrUgkHMVUfuqAE6FIm0ICJ5zqdeDAAXv3naX20Ue/Un98wgfDVVnFJV0WOQNyw986feasfSBCL136ntTnHqUBofhdOQhoBzDO7r//flv40ENWIr+LNiW4XHnFli1bLoYvjwfKTorEhgoHEyaM14OQWK4IBAx3Tn1kc2LU251T7pCKLPShLtpCwMLHgkW6uU+QDyKEh2idCkNfkzkQSBD3dO9hQ4cO9d8UlgqEcKylcGTqmVDsHTfWYczLRUQuW6S6Tp087RyOdUls3mO8gBCfaORpS6xnkAhIXkeOHrH35Ods3LjZx0WFVuXmvN74l8DroH+0mRF3CLx923Zb+t5SO3T4kBPNo/BfOwDSKZvrvffea3dPm+Z5prriaB+TO7N+/caQLF6qoT2Fg1EjR2TGWWKqPNdSEA5IxdJlDBw00FWm+8B6Rjtqdb9PTOr9ahY8fvwIfU15R4WUeJcllYePPobLctUX0gfhqEBqAHn17ds3LE9xqGcoQC1t3ryl0fjAL4TTe/YsVb+20LrLhOZ5yiddE8RvmhFLJ1jvQh9WJbclT2WmPsSj6TeN76bQuVNnZ0KQSd0JtK1aViAj8WvUL7JKrXlpbQAZI0K6lojBFj640OtOvSidf1ekkjdt3uyuFE8hBO4Q3UafPr0dN5RNGtbpnDt31ocDGxrCd+U5zAuufRaGMvWPITKsS9JGS6O1TjgeQQhGPyrOV0Qa/ceVxuI8Z7koAIyUVLruZdQDnQxADKZtMDC8IA8NduzocTt+XA623vObThfCzp4121VqltwhiNQ2UFPmunZs36nygwk8thiPZP369/PJyq999as+UvPNb3zTHn/8cdVHlq2IHsykO6kg+liMmlBDpG+/3AC9pzwFtM8MmfyOO/0OaTCp4tPCyWnFDSaCz7EsGbBwmyGycEsaVyj6OVoVkkTeI9TPMyqFAdQgohGfbgYjCOA5IJzHHSMa52X1VTHSXV/r9eQ/DAmIkQoFqOSlS5Vu3jryvC8LxMBhPXrkSlCD6/TLIjRqkvE91BXEmzlrlsdpy09pCTAF0oa/xyiLV0KAKmFkfujgofbUE0/aw3L4ZyvfWbPu8YAl/JWvfEUIGaEySYNCZajO7KScfgwLNMK1gLdJf5jqc2bP8XbX1KhbkQqmOlVVNd7nO+g3ceky0EJotcS05IOmuiLXIvAUuEW7MWSGlKX45IIRyEIj9wszaLwjIeard9YZUgAIyrBVFAAh6CCFxOorHt91t/4ogFle1B4iHxWJ52VHyuyyGKK2TtIpFcLwUG9JJZOKFEV5GBx+zSm7JTB2h+ReqRanSniY+sC6K+laYoseWWTT5PD37l0qjlWdUG2CNEzHNApWMSlwROHcSiHu6PFjdkYMSKntl9wcaO+wocPlbAeDIsGkrla9Dh7KCKff1IBVAd26dXc80TTazzuYHolzHHnQYwXUKjRItSEdWg1XytGZgUtcTORBuIueCIvPQREhXC+Z6z4L6KIbiG+Qar0oRDrt9YznnVTJkpIunsYr5BCVrK2tpjC3mLgfOmyoOu1kkPAf18QcrYHn9KmoDdS624L56ktwVSZOsAkTxys/Oa8wBoG8qJpCUXG+v580aYJyYoCg1mrERHVqz3k50WfU31wr0RKUlBT5so1CGFf1AC7Lx7sIghswlEIt46MidTAQGinal+faDVcCcGbNKtC7dx/FC0OLoFb6e/xkJ7wCOYTE6Y6HDN3QD8FBjdyvf8XyLeAyRylTEnpYr04VFUNFEqrzVTEnmj+Jp7yvqpILoDQh6aC8Tno/5qFCglWIh/aBusB1OKRkXa96NCgwZzV0+DAr6VzSKhevhf4jFBcX2cSJ4/RehFPdkVbisiIbJCa4ei2aA31XSJDKgInUvqpM/Xm/r8y44OYQuE9An+fqkB85haIVkLIE7pIpIcya85j8MzTrPyQByXN/QZmBrKLi4kb/SrH0R/+Ag6hCFS2NFPhgtO5ddaoxqZKMGfoouoOX5KFTpxLFiUql8HmAynBXRVGpB380DN8ncWYyFACybMxbD7E2vWGUGxflR/2ij8uSfS6kqqJdqIcQJk4SQwshdTVolnifC42CIKA+dSqT321E9fp73CwNgb4xF4KGpFbAukKcQUY8Ds6hIPIJUET9wHdJFeHilVA8TP3UMK4RJyXOCvKfoQaQ4MZwFaAuIJ6NJU6M7K9Y/SqOr69JzMpJpQEei3qpXadOn/L7rNp6wwxGSUbQa4dob+QdufAw/uMvtd9B9+l3LlNxyW7bBK9ndp9i5pSWEU5AJw/qauqldxlFhm0UvM/Lk5jzUiGQQ5XDqw/7lApBTKkgiXRqGKGosFiI6SbEYbBEOgaFfVFtBvE8ru0B5fYoLbWu6ujralRXGEfFI/lb5SNWXpQ/pr7FG6xsWBeTAsx6/NQJH7t0FFBvv9RbFznHGEqUDDK4Xg1y23bhQoUSSMrSnx4Wi7Fyy6Y84jqkqwDNhKPt/nMOhN8prSLcO2odYL4sr+zaSDgajPWY7hMSUU+MgifpArgvUr9Hp0s2vEJKq+V8+sKZTBo9jbLp06dvJonKVxVGanARAgKJAdw3ldMMlJaxT6zWRtAzlnfDBG+/9XPVs2lBaQKawaJTBsL3H2AUH63CyiqxkOrCOCnrPq4HEioOHDzg+KFd9HW0i1GSXIBHwIlv9vCEkRgp9xEVKpgDqO00VNgcQlMk7DRJnAqg4AIUfz19nfQ+Xr3eYc2hjYMOZJgvC7LEenTvmXFMqEnMW6ZrYgqkiQgQ2DtcZxeKlNo6dcbzpaLNIdK0BBAD0caOHevI9mi4UNlgNTPTP/rRP9lROfs11bWuNGDcssNH7cc//hdbtuwTd1fcslNiLLbSHj1tzKjR1l1S3BJNVwNwWlFx3geMo/+nTfnORAMGhB+WQjB+pXDC8ozAMwTsozZ06dJVeYVNkCpAnryHwZx4epdXWGA9epXmSGCU6ABBkDjGGp2yTpCQOKw58J4Ao6KTzOFu3bsS0eMDqDPM1pYj3yCbqRT3oaRaGOaplh+4ft0661QYc01k4dcsr/bgjilTfHQhGFIq0zGB25InZ3q7ff/FF+3F73/f/vv/+J/2vb/6K3tRvzdu2OB5O+Q0fphcksmTJzd71hZQO//LsqiV081yC5guVzIg4pgxsQg2AVbwBfm7xCMkgnTt1s2Zkd9uU2R5o93wBxMQF6lkqC0G8wOayKFasUCTCIHAKKBEXHS07LC/z0sGhOrK6MigQQOzuDzE8qnzea/zPmxGgwgNNnjwQJnOvb0CEC0ZIr/6+GOruHDJJcODcyOBPLOW5ABZUu6cObNsuFyAsErVcIkezn2NEFkjy/jYsSP22a6dkr4y9W/xzA2DhB3Vq1+/vjZ79pwYBBDi2iqPZyCWkR1HsNeLetb7Wv/CgiKvMwTjOUs6Ro4cpfzUTu/g8qyi/ILqc1y/hex83IJi5cz+uF6u4SJP8g4CEhdVngC7gcXHpZK4ViMnJAbRjHj0lufuk3b6A9EYAcxf0Sz6J5caheJORT4Ox6wt8ak4aVhazXpMfifo0bOHjR8/wRfHkjYGVmvt6JEjtmrV6iwuRP58YCJ32rSpdt99c6xvv96qk1I6I5AJ19bgPMTrrI7U+/7759r06dP9/bVCIiS7cGNQIdQ0SzuK1Tac/K5do4/zMgUsCj5+4kTgTw9Z9sFSfAY1UK3RbBg6KnhQ/WauZCFI3YXjElm/qPkEOQpQSBGl+/ftZ0W6EsSmrg5YW0kHyxhjcEgUwjbYXr176jejLdFBo1YZzWYQOmELTpo5c6YzBtCUR4H94hfvOJcBIaVXB6LA4fPmzbdHHnnEB3zh3Gh8U2gO+q1nQpuV9uxlCxcusgUL5jfWpz2gPhHIIdRambTPa6+/5kh0KUQa1RaGvx64f567JQmuXKl2XPgUTqDCgZVdpTnDiPRx5MHg85EjRx2PCeiq+g8YoGf4yE3PGwnnlVMYM3pMJvohhfh2rPZigtU5wQuPGjCgTP9FAyiYzFGXe/bstdOnYu7Nm6x8WFPJmCFcFsUHItDpP/7xj32m4XqAOi5Y8KB9/WtfVz1YLtjUKIC8EziP6H2fPn3suW98wx5UOtQRzjd1o+F+vQrAnGgSll6cl2HCkrvQXPXOAHdMmWQDB/XPtA+S2eAz3QxiUwGyd3WoP/pWLG03TPjTSwauiQ8+clUi7yaMH+9XakhbCB6jsdK6sAmfTBqlQv/wu1hbgoFCf+IPBd17dPO+plu3Lv6O5+S1f99+md7MjMsnzLifBi1YsFCmd3/LV98Qy/5Y4VUv1+CgvfPOO4pLJlldrgJUFyahrKHDhsva7CW1TloqGIFRe+mAxmcwYPfuPWzE8JGubhknxWAir9T8toAycG9gBJY97Nq127sMZaqgMgoYvutj8+fPF76wwrENkJ5qV3v79u2NJukZ/TDzmkw0M58X6NdL4Qg87NjxWeDco8dITCdZwqPVb6oCmcaLkknpkBowaPDgrCOkwnWuErASt23bqoJRA14LT4NqpXNHmpzLFHhDfJbanRKHAhHbXK3NX7DA+0VqQBnJn6IfvR6grsCePXsk3aeysiMvgJ1EDBB4bRUZCTt/noVFe7xCwklgAEjXdiCVxXKJ2haWJG2Z+8BcWbrDFBGsRj+IWQ8OGLv0Ary9bJYZJkKj+pC0yAMgnuM45c8/hdLSUjcCfalH0iLKrpFwCSAGi1wgBIPGEIuxgZOnTri6tAZ1kB7g+HwbOHCgjR03zjtROl5wAPJYFLRLaoLpHGXlobAwz5etEXzqR3FBOO/6u7q7dqBRcODmTZtiqbYeRJCPqY782WefdaRSHyLzx5zW9u07pPpZBwkT+1uHxOltgTOD8hgwYKAzMkhH7SE99917rwyd+7yB/lx/qDsWB+/cucPTErdAbSc+XQtdTMviMOro6xtVvN7THtZbMsPAA343nx3IBT1lvzIdPkvQVFOrV+GVVbFtCPOURgA0vHPnLk5o3yKbAcSAc1gyxwYQVi7TdlQOG0AWL37M7p97r0srk4yTJ09ySWwfWiOVJ6dOn/R1I87VmQixHGDChHHO2ZMmTfR+rF4uAW4BsxQHD+63M2foT1vn2R7ADKhiDJqJEyeozr2lPYY4Az711JPOhEGgUKucZbJixQo3VBIhyIM0+HlpyWICarJ+/Xo3APkFE7ngKE/KIA8Yz9NkyVqtq+Ql/ggrdMsZiyOyAhWiz0K6evToqfzJIbic4Rsc70OHD1uNdDsVgTPpxOtl9g8cOMDXM1IRHOWCwny5B+P0fJAaMlaq5n71PcM9L3gi4wv/Hc1qjWTUxqbNG23Txo0+rY9ap28B/uDpp9wAoLx169b6M2+8mIc+qEfP7jmOclYmd6ngFoAUYfkxyYkN0LdfH7vzrjtt7v33y/eV2lc60uIeHD9+0n71q1+5ZIODyDKG5ubMmeMuiBto2XMIdEpqdem77zZOZAM8H8w27ScWqx0FVqjyHT+eqi2JE+CTUAhoyG0Mwzwb1m/wpQKBy3iHmkTqRo8eHR23CgVQEXDSp58u952oYVXhx9VLUktkZd5pc2bPzLbOtlmVHMjyVHrmAulHWWKXxlEplur0LMVnHOdx2cKExQkBoxksML3oS8lZJpg4m/B54MkVb4C6BqSAusOwbGT0dimLCxcu+QrqjWKmiJ6pN5UPbu688y6pb4a5yC0YhgFlli2yXgVLNdJ48mwhbPNxy0jZDuEAOAM1lktl1qNs3brNjjISwJOsvcQZKgOFZWuMI/I4RiNYGFMtwn1qGzZsDBNa76gMFfQRicY8Ip8oqS2I52mJHfsbjh0/5pIWEO/vuOMOWWw9PC9m5KepTgwhJdWE5sD1wL/y4lIjrgIJA+TpxpQC955S/3FFzTEMtmrVSjEFk6l6rjZSHsvxWYbI2h2AdwSAJfkYMeH3ZvkqQ6Qb37eR6SjECwxoRbj0vrvUSXS6El3l5Jwu7jh54oStWL489HFWOGqE2YLJQhqrn9j44FMTSkUlUKNsavfjIJQGJIY1yX38psJklxrE7+xOIRMnATUhz9278RXPOHKIi19HPjBcWnrBb/rr6NxTfgyaV7h/RVryIs/PA1JTQ/7o7wo8UG+9EIoqZfiAlwvSSikubWRtJczDmCh1zAWknr7w6LGjoSK9PhHuu+8+pe2W5RX/eVlZaFPiaAbqaM7sWd4/sV3IWyiokZGyTVK3Y8cO/01kf6VcWZY35945Xkn0eCzHUyHy2RhshZhRLg1OISpE4KVf/EdbQPx852hMc0Zp/Knng5M/1FdzATSe+Fi948aN9WeRewyEoy4hYDxtr7wAr5OCS5rf4zgT9EcxCswLQjSAN6gSltmNl/PMmGgvuVi5Y5A0kUXCW7Zsdk0WD2G2fF+y+MADD6RHwbZRcGNok3AAGTAQyrkcTkkhgjTcslcA7mIPmHNI1qECLOhkH8D4CRN8SYFLnlo3UX1gSSfG8ZpKb7rLQrq5CpCqrOyo/KRTUkPUJqQRK9ZPo1O/E0QLwPGfOXNWdo+Kpl8JPyu2hkXc9pmlOSQmyQ1kgRWOwUIZtAHnnqX48x6Y5yoy5tiibNQ7lida6PRpJpRpQwTqvkAWNmtBpWUD2qham+ecRFP0v0pC1zJ+xhCWVzJDEgtsqMBg9W2NU/96TRT6GOalGB3o3aeX75NDehmRhyESOM9GMW3VrU2g4atWrpbUh7MaKbHaiuzJJ5/wYS2kMuoKhEXHqmXSElDtGFiMpEy+Y3Ko7cb41weUw6w/ozG0j/FbFhFhiMydK8ecnbjqRrLYjjMGAj766CPv22JAOdpAmDLlDt+1hMtAlVzK26haDuGCXAFgM6wbtgsxksJmRPq1xMxUgMFT+rbhI4Y5Z2Pqk4b7Xr17ZX7LWN/4gKFTwBYtpSUE+VrUqMXPgND52KNcmaj9dPmn7nrkJpg4caKsvXudiahDbqCvOyx/j12v5KFa6lrvcTlfK5bAZxldFwQyvJ9Wm30IUP4sTvb4ceNdTbOcHEbhD6bBdWE2Hkvy0sVKxycDHUz+ssPnq1/9qrsB4NDr7m1oXbkm9vdKEJDPpoDtxAFrDz74YHC4SkrcSR+zcuUK72A5JYd+MYwNEU+hW/duPkqAX+gqJIPrxRFkw0hinHTv3t3ylY45AQLILc+mTZ3mgwFULWmGFDpJjbFLNJnbDoqDumQ37a8PgTP8x3yFQjEux4EgefiKBcI6zAzyKZedt+x74JCDCxfkxig1zAwT4ds+9tijNmrkKBeGJoAOUU6EgBzCJaCxKLEIqAH6Kvw6LDQkMV+VIcO6uhqfOF2xYrkvDXe+yuEO7gOR/OBf0zuHpnoENK9bI8QAMoPdbFE67LtfYSACbgd+JCM3PoyWlU+KFIplFDCSwmYUlzjiKDn7JNhT51u/fiPILS2njTm3EBCDat26dXbm7BmXPoYI0Vy04f775tr0u2fktCEFICGmCTmU1A6khPharEns7Bv7cG4ZRkoZuYsgzj1x/ESzigItfv5GwEE4Z86c9S1KvqYle04jcbSxaBkLpc0eeKfg/ZcQRGeP8UJ8fqM+2YuA9LJs72aD6GTsKzhyJLalhQaKVowdO8YeWrTQ7QHql8LVMJhDuOAYb2xOKMovdo4t6VRsI8W1Tzy22IYOHqJ3+X4OVbF8pM56VyLjABM45DT9CeHK0IM/J8+c3FPdWoZmwAOmZRrsoDiWvQNIbrQLBJiMn6neP/As5Y6QuqBmfXVXxlRl6QZCQKS6Ad2zgYQtVyAzhWuHVFpLiDIA7jyGcMMUDXsJ2BrWwBJ4qc5hQwbZ03/wpC9n5yQLupioduCL6a+mcggBTXftQKI+nIsDydDN4scX+/R/mrLA7GXIK/c0hhsNDNiyxQrpZlgN4gH9Zb1iBBUXtV121J9Zj/DzmFqir3Z9IQSy0oylggyd3UxAwieIcejD6OtY7s/RWl/60pd8ULxQfRwtckLrPwL37cE1H6YNEBVOxYQFgQwd0ZHSv2CZoYKcyDeBgPv2H7RXlyzxwVsf11SHzuXhhx+xhx56yPr0LnXmcorQ4pat0rOLFy/7OcgcTcxCXfG9XtTbWFm+zz79jFQum0JuDjAAxWImGAR1f7nykg8WxFhqtnocJlNcmpEg695bwXVjGKLgFzElw2QlZjhEQ2cn6bwZgFTQPyTr1HcMqa1IUJjzbZTrWMiCgH6a+rqPlDEZTHCkrMz7n2tn4esHCICRxxzhuLHjfEtY2jSSZs5hIl8BJ/X+eXBdhEvIgXhIGgTECkKFJqK1icDfENj+BZcy7YEVBlAH1PYQMVAx5fvTDGh3i2qAFnUb1rNHqQysiXothNVT3wJpkFrfw0d/hzZBq9wUUPngilEWBgwSrrjm59MX0+/6oyDeVQh43RKXS6DcgnN/3yhANTO6Xna4LDuRL8oCsCwZE/UZDH/SGjIe9gAQr2dpqU2S1EFd/lRrH1M9eOCQlZUd0/OQxNsHEKtlzVvDdRPuVgFcj3RxZfrmcNkRoZjqRujZo5dPhjYOt9He9hk0QPRgkwd9MmdusdUJazVcjXN+DBZ9UZD4xgP80BSSqm4erhU6LOEAGsKwGgfM4HPlAn0bM/FOq3bay+MUEjDjwxDeqJEj/YVLtZgDJ5wjpTgL5aZDm/Vt82G70GEJRx+GIcLoOSqMjfIotrT8jsMDGEVh1rlRSHLbjlrVJfcxqhZXADeG/tlHZOj4FCNPvmrZkaN+MCinEn2+svr1AKFqCrnShgRi4DUP7UGHljiOc2KNJoZJqMJEgji66pVXXrFln34q1+SMCJKhWPEgECHEMYDfnIvCENfP3/65rV6zWojBogunm8BQGiqZ+T7iEzoqdFjCsawBRB6UVIUlSVVD2rgyF8e5LG++8YYvpuVEJBbB8t0aXCJCQjzX8xUXbc2adbZkyes+0MvAbohjE3UYvoOwJ463Pjuro0GHIxycD9Hod46fPGF79u+NMTM3lxVYWJitpvZFOrr75JNP7NXXl9jmrVvt0uVKp60fRK1k0OfUqbO+M+jNN9700RfUJNJGHlxi1w85NUgtx0l7GEX+RP9x7WjQAQkX0naRPqzssJVXlKuWYFcvhdzCIhakgszw5yAw77ft2GEvvfqyf5Hk/KWLPqtRU8shqIfs7bd+4d8FqMiWv9UpfyzUZkRTIM9Lly6onzskn7EiRjMEMFNHgw5HOEiCic42pt17WC4OxYLrOSKJpd7jx491JzYhlGuRHFpOGn/r7bd8B9CJU6f8E19LliyxjyVtHlfBc+NeN8yb+R4/yoQB9JwrK7DTqmKidkTocISTfWVsame2+tDBMEoSgdh6e88999jTzzxjs2bOlDvAMjx/5Z0axw9funjR3l+61Ja8+pq99trrtn37TsWJLVEwBAlQlaNGjbBHH33Y5s+fZ927d/MyQsDyZKCUGUfIY4F6BTogdCjCOYqk9i5VVto+9W2sDHPDREhlJn7Y0MGxNGDMKHvkUQaXH4zxPhEPxPtfhvzNmzbb6VMnI0/UoF4wI82JdnfedYevT5k1e46NHTvORoyQT5e5BSRgvzaTngyxRX4dDzoc4VjZdPrMGfts5071MbF0gn9MGUG02BwfC0bnzXvAnlj8mDvTPl6qPz/eKotPPCSMvotREj5ped+9c2zRww/5NBTbyTiCadSoMX4QD+lBCcvo2D2Eug4Vq38djIIdgnChpuhfWPlcpf7lqKsq0BjkbPB1iSw/YIjL+yMB96hOvs3aq2cvj+pGhzfLqeaqFAuSwXBmBviGK/sKYo8bz0uU73Ab0H+gfue748/0EEfqHj92zJ11p11GvI5CwA4jcYEQzue/YNtlITKI7Eh3AjT4HryhQ9mwH3GZDgEgMDtgOUeEzfTEjzTxnrTcQmzWg7I4CEmGOBAUQrGqis0cvhpLz6gJu5J27PzM90tENim/jgEdgnCOQBAmjGGG79u719UVAJGYQgK5fWUFhv8VO2N2fbbb3nrr57Zi+SpfnZzRyIEZZZw4+j2IhqHBKAwW50cf8dGmSyqD5vM1kh7+7Z8unbPjphgKU04saSg/x2l9kLJjQYeROBDGXBgntnIKO5IA8riyOmuYpI1T/EAixwvyqbMlr71mm2SEMEQFgN+EYs+Po3NFNJdB5YM6PnH8tL3//i/tzTff9hXRSBL94/DhQ23QYKlL5sSy9JwRxh4FRmg83w4kdR2GcEgWZ1GyJ4F7CIQEMvIxoP8A/w4ryOQ841/ImcahxvLjVAKsRggMkZhFGDxosH3jG9/w02ExOrBMXTXqD+Kxb2/VyjVyF37mO2cpZ/DgITZEUu1ugwKUojw+q4b61q0Tj7qlcDuhwxAOQiFp7Ol2EGJQWV26drXhMtd7lfZ2S+/113+Wrbln70BsIgG4ZzaBtZ/f/va37Z4ZM+SnPerH+jJ56phvFJg8P6dyx/YdLrUMmTFTwHJ6ljWw0R/CsBaEwWz6xqY9gR0D2tw7cDsA622V1B87WNxhdsLlyQUYYTNn3mMnTp6UpP1CBsPO2OIl4D19GJLExOgjkrDHHn9U0sPS73w/5IyVXSNHjPAN/nwaJSAoCDEwPsoOH3YpY8MKLsDZs2ca82UNKdudhg0d6h8qCrmFCfR/IyPceugQEgd3QwyOuHc1JCRyiACEwVw/wAqvV161Per/XDU66wf7Ewc1yof3FsotYBOh2xYZYNiw2fH5F16waXdPc8nOBUZpmKx97733fGMIkEsPYvP1qkucTOuQvb3N0nddy/NuFmCUYNL/r//9fx0ffOHf99KJAiV8zb+Ak/n4GBEqLAIEQz2y7uTZZ5/xPsonR92oSQATSDL0iP1r7IdbvmKl77fmQIFgEkpUUD+J8YMY1fIuMghoqLPvfuc7NvOemc4ISdJyGeRWw22VOEecAj4bZ3z40nIhEqIUS81x3N+lqkq7rOfstcbtdhUmxNGfPfjgAvva177WSLS0wyUQG7FBLmVAUJz4RYsW2je++ZyVlvaQ7ChOthwOg7FaarFGoaXxyFmb27dvd2u2o8BtIxzIDP+q3i5XVtnatRsd40yQIlnVNdUiFkjUfR2n3zGNE1+/Yl/bl770rMKXXU1yfkj4ZBmIEO5MM4eXrzQFktB8Od2F7IHo5N8j+O4ffcdGjxsdZfjhIaIWLoMufKsU5kmBumLtolKpVzNpvE1w2yUOdcdoBh9vAEnehYAslwKCJC2P4+olGSIGXzz81vPf8m1ffhqr8kjgyT0LMkHiCBkgWS5hOPT5xono3/rWN/27PoXFRU48iOgpSJ5A+VNPlqpTT9Q6v2833FbCsdQAqeNjQvHttQIhKsYaOekuD1+uVlIjMeBE2unT7rbnn3/epukaG/IhVEhFS1BqBf48p6Z4wjmTrzAMHyH60rPP2qMPP+JHCxaqfJ9gz6VLljfqcs3qNT4C8ztNOJDIiMXFCxdty9YtPnqfkBsIFtEUj92abJFa9NBD9uWvSDXK1wrM0teB1OZEa/0koPGZbrgH+QR2+TBFxE7Q4SOGe51aAuVQ4r79OTMGtxluq8QBW7Zsc+MDV9qRqTvUI6hiiobtuE89+aSfTdmrZ6lXGAMGSfUFP4oXeCStiKm7IFJqGlc2dyX5C8ZoOvKC86WL7e6p0+ypp57yZe0YPoxyJvBBM7knNbJ2t27ZLmnNXgT/3Ba4rYQDgSyv4xrS0wQQBtN70sRJvj0JVQWBWJIOxFkmzdNcM1Aexotu3bXQHxYtZbB9jHKTRDpwVcAyXbd+nVVj/TY91n8e65bCbfXjDhwos7/8y++pf+vsi3saQUgFGUgQ3M8AMF+oYjsUHz1iHi75a0FvCK8EukemHFq2KnscZA+Es+cOS5HNkqwQ4yinM6fj0Bu+meMEJpC10iOl1PPP/+zP/fwSeCcrPqvHrYPbQjjXcGroktff9MU8nTtzElGY8FQHZOESJOKxDQnneOSIkX4eMwfOMBPOZv0mAoJdVEhIUkugkTj1mPocKYUzzjgkn4lev2GjlVdUeEqXfFBCAr8N5vF6qX4YJw8tWGhfl/+IdUqcW0004LYQjpGR6roae/HFv7GyY5xBLINAtfDPhDGSIUQwjoi6hIBOFB6rqiWdO/nZIRwTzE5Y5ukYXfEtSq7+Aov8n4tPdqBdunjJxyY5G5IzRrZt22EXzl/QG/0pspedgw6fI1SIqwifvSuVH/lf/+IvZDTxwQyVk1vQLYJbRrhUDFdUzkYh7m//7u+tSn4R+wJYI0IfM0bGAZ/nOnHyhB/HEdwutJNOpGDwmH6JidZhw4b72V2jRo2WEdPPj+dAAsGjI5vyFBjC4jxl/LCtW7crbPW8qQdlk8bjwigKOPO9ZcmyL7tEannbju12kQ8XKg6Qr372P/zRv7c5c+5pzh23EG7J7ABITwFgDHLJa6/bMf+qfCwjCMOg1J5/4XmbMH6c+cY/xa1lBEXSxz3pkA44HE2KU7xr927jBDq+ZYca45h3JJBFr+R99AjqcIstW/apHwwTS9VZFpH6MK+RMsz3ge0+ffvIIJpg982Z407+uAnj/Kxk5vCIS3R8QGYN6HdT8lsNt0TiUhE+Oaq/ivLz9uJff9/Oy4dD/UAExhrpv7773e+6ic4GDU5/5Xhc5uEOHzpkF/xsyuj7GhGPqS+iM6TF4lYsUL5BzqgKRxsyBurfBz/f9HVJkdTrQ39GfnzEoX+/Aa6CJ04Yr/TjnYkA6vdvL73sX/OvEhMpgX8WhrNV/ttffU/xeit99LO3Em6pqsTw5gr3c2S9GyGgsbbBRy6ee+45mz5jhquqBAwxseqLYwr37NktIh5w7gdiKxJxMWZqXNWxRIH96SyWPSDV6IuOIJgTGZrrT8SiHvSpLIugr5wotwM1zfcAKD8WIwVq1m/cZD/5yU/tbDmHpUri9Zg8nn32S372ix8Vcovhlk2kurUm4LtzP/vZz3y/tSNBj3nHJOZTTz7hC1aDFBE4OpCTwDn6d8jQoT6KQv/GDDZ7t7Ej3bKEMRRIhRHCCewMbXGWFr6fk0Gvwz/k9PaB/tF4xipnzZppI5U/R1c1fV+1iZ9LZL0yO0C/iJpkYIBykGLSsyk/a94tg1si4xCIAAI5ZoO1IgwtgYSYxuF0ndG+FDwqBNJQZ1kQd3MI99Chg/24W044f+aZZ/2EuvTZL6TPv3OnPw61dvWp3DD9vW/UM679+w+0+fMW2DPPPmOLFy+2qVOnScpKM+JjxUZ9ow5BPKQXiaTO6SwX8sKdwAf06ILUzlsBN51wqTEEjsLnLKs4hY+RiOBsRipmzJCFJnCTXpR0SVS/5dMxPj0Tz5EWPuHVs0dPnw3HIAkEk1eEXO5XyX4lLThFnXYXIYYPGylGic+kUA+fy2smaaCGEOXifnBUcIF/CImM9Fzvfa+dfjM9ldqJVN9suOmES0CDkLD169fxyxsXBGL5XV9fkOrmuf+BaBFL8QiOTEkDq5y3bttiL7/ysr311tt28OAhJxyIdOs0I67+o0i/x1pFSqIsWaIV5X5G9EsyOD755FMfNKZeaUlDltKLbAwC+k2+OxDSCzvATAW+PPBCdioRjJGAODcTbnofB8JoBNddu/f40e7+PVM9Qz0RFi5c6L4Y/Rk4c+RluONrWpWXr/gioQ8++NBPGd+1a5ePfASyE6eH/xWqtcH7SgiFJcG6Epcm/cP14OBq+lgWCR2Utcp5ynw7D7Xr+CaqM4Gu5CHgeEJWS38mK5cTguB5JA6pHz6UPQ0DnEmcoFkawBnpJsAtNU7eeXepm/aJG+nzOO2H2Ww+co4b4BJHW4Vwvta/bds2e3fpUknJCtsnKxGChVoKDk95wQAQb9Lkib4sb+7c+32Ojz6VExWSpYqqJCGpeM46TfaY792zz8+Q5JQi/2a3q82AKCFOvmUhLgtkIVooLJz2Opt+N4d487uJcIloN4N4t4RwqCKcZZaL535zmwZPnnyHHxzt23v1DLWGxbh582Z75513/ZsFBw6wQzQsugD6JSZd+Yek5cl4mGCLH3/cvyvHCa1IAJs7eA5zsJ8cScMCdMxmxENq2VZ19txZP3Zqvwwnlqf3LO1lnZVOXZnixR/nf2FY+Xko+oPJeMvCoxn3TPcP9EFL3vgrYvit/7ihcEv8ONQJp8i+/OoSR0oC+qXv/OEf2r333etqBgljDHH58uXqv2KZgH+PTdjzZQxKE9wLdtgOVSDCT7KZMucZreeDenEIKvEURQkoAzOeA2gY/V+1cqXPCOAmeDyQqsieShKPKmUNCx8V5DjFGTPi+wswChpio3y6H/7wR963YsWCPgymf/fVr/i2r0b/jz46yxc9cqPh1hBO/tbf/eAHMiy2ux+XACn7m7/+az9set3atbZm9Ur/EAQbOBhfpOFeOf3ng70iFH0eSGd/2wNzH7BRo0f4wWZYpgDf0clVUeFs8zw+6sAKaM5DRuVVVFywziXRr7k0k4578tANX5jkaEI+9sAKaXxICPbii3/tJwcyOE7/yTIKTsL7sz/9U6UJdflbQbhDB8vsB3//Azt+Mj5LlmDG9Onqkyb7Hm2+L8NX652T1R9BXmYG0opmpA4kT7njDptz72y3QvncCVIHJGLRHG6x/gDUsX75PQjFKWd/AafNrlm9zonICuc46DvGQvnOgqtCIR/mAvybCnPm+KrqDz74yE8x5ygptmOhLTBs/uRP/qONGTM8BgK+yIRjqR0+Dg1977337WxF2uEZSOXIdzp0Pojn7oG/axAS9UzXPBEQ36+LCIYDzBcax44eo76GsUkhRP5dKNAmwiVoIiQLa5E8IdERiSyJgLX4XnW+X4FFQFirqFOIjJQCONzUFwmE6LgrGC5shNy8eatrCjQAFiiHCbAEfvETj3u9qN8Xl3BCDlLzt//nB7Zjx06rrc9WCGeEa4S8bKNhVpM61jqKaPnqO/i8ySK5C2xqLJLzC/IKHDFEZpZNV08HcpoQ1JJwmb3qUUmD6qwXMaERUokEYgghgQyCE4f4DK+JdM5YMBlf60I1wpSpDIBblg7+l//8n6Qug7G+sISrulLr0yg//elPfaS+zgnWViPoh8S5uoIcRtvvmn63Pb54sQ0eMjg+0q7nWJxOYJL4Osmmqjsdc4CFrQmaIw/i1asuSpDVB6MDwpAfBFwuAq5YgdlfqecQWWRUdFQnjBiuh57peYy2kLTBSnv1tOef/5ZNmTL5i0246qo6P7Ji+YrlVnmpUioHpLVsBBjhRIR86ybz+66pd9m8+Q/YQBEMYsH5NJx+j76E1MHovwnhIJ0AiVMIYGQnGIhB5PKK87bsk098w8eZM+U+oM238Dy2KuCz5X4fF4DPt82ePcu++c3nnHAQuHnZNw5uKuGOHT1h//DDf7B9ew+41cepdMG50RD6OLi5e/cu/hmXufLnOEsSzqZSgdMgkGTN1WSWNAOeAzkPSZj9JGWYOS0hGEhkip9Ijz8lYSSOepqdO1uh/m+lmG+FlcuNwPDgIGwkFBWa+sEkXXz15I//+I+ttJTpoULVWXWILG8o3BTC0W/QitWr1tgrr77iJxiABfoUlyIRiw//0VdwasKihxfa4EH9hAxFEyXiY0fKhwZ7oyUFTrhMTQqyGHraAitBAYerEY6Q+yaRjgtv+YVBCqFw8C9erLRPly33fpD9c/iYUVesShhKqfSPzSSLFz/hB98gwT5NpNwSs94ouOGEIzdXOSLOSy+9ZKtWr/JGex+iBsaQUnebeld8NGjo0P6yHCNtU9tSlUBGKNdcogHEIITECVq2QpGDcBnkvs8yaoukgL9W/Kzba4qnF0ggMxwMKJTLSmbuj4qTBoMJKZsqdf/CC9+W6sSYkprXyw5NOHIiUEXWk/zTP/+z7d67R0SMSjNOeMeUKfatb73g36Bh+l+Go9WI0EBT47IqiaW90dzGk0bIrXSzd7zIHjQjXAsgWm4eQMqHK2hxzCg4/aRGkL5kXTJIsHLlSnfkGeuk7h5fgI/5/PMv+Cm2SVXeaMK1167rAhpJg9z6UkDiPtu1y86Vl1PjqLkCIx586Jxdo3xAneFG9uGkeTfLk7+UxwiGMEAAZWAjYSQHEhqyWE1EyF7wLF1bpuZ36xwDUr4g2nGteuS7u4J/mZeZ+g1y/rvYw48ssifcb4tv5PAhCHJmSI2VZAluNNGAG0K4aCSVg0sb7ErVFdu9e7eVn4+vGqf3pb172eixY6ROIl0QpwmFyWSIK78DmjW8Haynx229vtq7qwGlouq48Yvf0l/xEiat9wO92XPOIAJvYV4+CsGAddqrfjPghhAOALlYfTSS4+YZc6ytlfmcgyksR58FyJCQIBE2+gMFZeKviZQT7/OwTtQUciH3eVvv2wQvK2L7H3XxR9xziWcsBbxr6lS3mnmO5kH6mC46cGC/M/LNgBtGOAflRjXZjsRCGp8YFdAgdsRMUwO5pme5kkWI/4Nsjhh/Em8ccm5zIeI1h/S7nSSNaVoGhxa49jp4feIPPw8mRUUyTTTljik+5YPF7L6b3nHEBoft+LjlTYAbSjjqeEFqouzoUbt46aI/ABkNsqsHDxpoQwYPEuHURzRiCMgc7ECJ/x/ES/ctgEcKoCOhJHvUDNLvVu+yRC3fN8ZpC89ONHdI/C++NOV37gr07tPXRo0apV967paI+agLSys4Uupm0O4GE67BLSy+yYa6oMJIDn0Bi23w3ZpDM5QJmv/OfdMILZDQKs7VkPR5CLxGBCc1mQLW8T33zNQbMogaYaDxoQv/IuQ15ns9cEMJx7JsZohZpx9Ei+csS2B1cHFxp3jQCETIRb3uY7iksbG5bx1aPGj1/lrganlfb4ZqJKMnbIhk/af7qzyW5F1QdwE+qqtluFDmDSTgDSVcbF064h9zcEmDePpjpXAfqRNplTYgerpQqv6z+bUNSO1vM0r2MMVphq9ryNuB958XJ4EaiWHCEBdL3yEcbcYt4nA4jmVkJVlNLe5SluYGwA0lHOYvRItZ5zCbubK8oLWaTNBEuEYkJ6Q1YjygGRFaQHqXG4BWzz4n7xaPrwlgUiZSOcGI8dfUdohIX8epREwdJWm8EXBDCcdwFofAxHxVrS+iYb3G8OEj/IRWJPBqcC1Iy0VurlDk3reVz/XkfS1xGwEKCYqKitXOYT5vCJGwLLEwu/fobj26cxhObg1/c7ihq7xYUMNpd1HxPBs5cqQtWDDfVSVnctHGrJ3tAq+bRWknvscDwznv24naCJ4mbgPaSeDxcql3lYx55dXQDSND7KuDaen3OEqYdTF8eZ8+D0LGYqLfHG7oWKVPecjprlBfh4rgtDnW5fupcxnFuN6YqnccSAjEevZ95eXnvNtgr3ovGSwx9ZO1/QY1/qZM6/webj7c0D7u93Dr4PeE+4LC7wn3hQSz/w9fhEh8wP34rgAAAABJRU5ErkJggg==" parent="1" vertex="1">
          <mxGeometry x="315.95" y="300" width="25.39" height="30" as="geometry" />
        </mxCell>
        <mxCell id="OeS4Q1I3CSxu7Xxp6_FL-16" value="接入网" style="text;html=1;strokeColor=none;fillColor=none;align=center;verticalAlign=middle;whiteSpace=wrap;rounded=0;" parent="1" vertex="1">
          <mxGeometry x="390" y="380" width="60" height="30" as="geometry" />
        </mxCell>
        <mxCell id="OeS4Q1I3CSxu7Xxp6_FL-27" value="核心网" style="text;html=1;strokeColor=none;fillColor=none;align=center;verticalAlign=middle;whiteSpace=wrap;rounded=0;" parent="1" vertex="1">
          <mxGeometry x="575" y="380" width="60" height="30" as="geometry" />
        </mxCell>
        <mxCell id="OeS4Q1I3CSxu7Xxp6_FL-28" value="" style="group;fillColor=none;" parent="1" vertex="1" connectable="0">
          <mxGeometry x="340" y="220" width="160" height="110" as="geometry" />
        </mxCell>
        <mxCell id="OeS4Q1I3CSxu7Xxp6_FL-11" value="" style="ellipse;shape=cloud;whiteSpace=wrap;html=1;container=0;fillColor=#d5e8d4;strokeColor=#82b366;" parent="OeS4Q1I3CSxu7Xxp6_FL-28" vertex="1">
          <mxGeometry width="160" height="110" as="geometry" />
        </mxCell>
        <mxCell id="OeS4Q1I3CSxu7Xxp6_FL-22" value="gNB" style="rounded=0;whiteSpace=wrap;html=1;container=0;" parent="OeS4Q1I3CSxu7Xxp6_FL-28" vertex="1">
          <mxGeometry x="55" y="45" width="50" height="20" as="geometry" />
        </mxCell>
        <mxCell id="aA7jyXCErF6xdHRTzT08-1" value="" style="shape=mxgraph.rack.ibm.ibm_1500-2200va_ups;html=1;labelPosition=right;align=left;spacingLeft=15;dashed=0;shadow=0;fillColor=#ffffff;" vertex="1" parent="1">
          <mxGeometry x="359.5" y="350" width="121" height="20" as="geometry" />
        </mxCell>
        <mxCell id="aA7jyXCErF6xdHRTzT08-3" value="" style="shape=mxgraph.rack.ibm.ibm_ups5000_hv;html=1;labelPosition=right;align=left;spacingLeft=15;dashed=0;shadow=0;fillColor=#ffffff;" vertex="1" parent="1">
          <mxGeometry x="535" y="340" width="140" height="30" as="geometry" />
        </mxCell>
        <mxCell id="OeS4Q1I3CSxu7Xxp6_FL-21" value="" style="group;movable=1;resizable=1;rotatable=1;deletable=1;editable=1;locked=0;connectable=1;" parent="1" vertex="1" connectable="0">
          <mxGeometry x="505" y="200" width="170" height="130" as="geometry" />
        </mxCell>
        <mxCell id="OeS4Q1I3CSxu7Xxp6_FL-17" value="" style="ellipse;shape=cloud;whiteSpace=wrap;html=1;movable=1;resizable=1;rotatable=1;deletable=1;editable=1;locked=0;connectable=1;" parent="1" vertex="1">
          <mxGeometry x="505" y="200" width="150" height="110" as="geometry" />
        </mxCell>
        <mxCell id="OeS4Q1I3CSxu7Xxp6_FL-18" value="" style="ellipse;shape=cloud;whiteSpace=wrap;html=1;movable=1;resizable=1;rotatable=1;deletable=1;editable=1;locked=0;connectable=1;fillColor=#d5e8d4;strokeColor=#82b366;" parent="1" vertex="1">
          <mxGeometry x="505" y="200" width="150" height="110" as="geometry" />
        </mxCell>
        <mxCell id="OeS4Q1I3CSxu7Xxp6_FL-19" value="" style="ellipse;shape=cloud;whiteSpace=wrap;html=1;movable=1;resizable=1;rotatable=1;deletable=1;editable=1;locked=0;connectable=1;fillColor=#d5e8d4;strokeColor=#82b366;" parent="1" vertex="1">
          <mxGeometry x="515" y="210" width="150" height="110" as="geometry" />
        </mxCell>
        <mxCell id="OeS4Q1I3CSxu7Xxp6_FL-20" value="" style="ellipse;shape=cloud;whiteSpace=wrap;html=1;movable=1;resizable=1;rotatable=1;deletable=1;editable=1;locked=0;connectable=1;fillColor=#d5e8d4;strokeColor=#82b366;" parent="1" vertex="1">
          <mxGeometry x="525" y="220" width="150" height="110" as="geometry" />
        </mxCell>
        <mxCell id="aA7jyXCErF6xdHRTzT08-10" style="edgeStyle=orthogonalEdgeStyle;rounded=0;orthogonalLoop=1;jettySize=auto;html=1;exitX=1;exitY=0.25;exitDx=0;exitDy=0;entryX=0;entryY=0.25;entryDx=0;entryDy=0;" edge="1" parent="1" source="OeS4Q1I3CSxu7Xxp6_FL-25" target="OeS4Q1I3CSxu7Xxp6_FL-24">
          <mxGeometry relative="1" as="geometry" />
        </mxCell>
        <mxCell id="OeS4Q1I3CSxu7Xxp6_FL-25" value="AMF" style="rounded=0;whiteSpace=wrap;html=1;movable=1;resizable=1;rotatable=1;deletable=1;editable=1;locked=0;connectable=1;" parent="1" vertex="1">
          <mxGeometry x="535" y="245" width="50" height="20" as="geometry" />
        </mxCell>
        <mxCell id="aA7jyXCErF6xdHRTzT08-11" style="edgeStyle=orthogonalEdgeStyle;rounded=0;orthogonalLoop=1;jettySize=auto;html=1;exitX=0;exitY=0.75;exitDx=0;exitDy=0;entryX=0.5;entryY=0;entryDx=0;entryDy=0;" edge="1" parent="1" source="OeS4Q1I3CSxu7Xxp6_FL-24" target="OeS4Q1I3CSxu7Xxp6_FL-23">
          <mxGeometry relative="1" as="geometry" />
        </mxCell>
        <mxCell id="OeS4Q1I3CSxu7Xxp6_FL-24" value="SMF" style="rounded=0;whiteSpace=wrap;html=1;movable=1;resizable=1;rotatable=1;deletable=1;editable=1;locked=0;connectable=1;" parent="1" vertex="1">
          <mxGeometry x="615" y="245" width="50" height="20" as="geometry" />
        </mxCell>
        <mxCell id="aA7jyXCErF6xdHRTzT08-13" style="edgeStyle=orthogonalEdgeStyle;rounded=0;orthogonalLoop=1;jettySize=auto;html=1;exitX=1;exitY=0.5;exitDx=0;exitDy=0;" edge="1" parent="1" source="OeS4Q1I3CSxu7Xxp6_FL-23" target="aA7jyXCErF6xdHRTzT08-4">
          <mxGeometry relative="1" as="geometry" />
        </mxCell>
        <mxCell id="OeS4Q1I3CSxu7Xxp6_FL-23" value="UPF" style="rounded=0;whiteSpace=wrap;html=1;movable=1;resizable=1;rotatable=1;deletable=1;editable=1;locked=0;connectable=1;" parent="1" vertex="1">
          <mxGeometry x="565" y="284" width="50" height="20" as="geometry" />
        </mxCell>
        <mxCell id="aA7jyXCErF6xdHRTzT08-4" value="" style="fontColor=#0066CC;verticalAlign=top;verticalLabelPosition=bottom;labelPosition=center;align=center;html=1;outlineConnect=0;fillColor=#CCCCCC;strokeColor=#6881B3;gradientColor=none;gradientDirection=north;strokeWidth=2;shape=mxgraph.networks.storage;" vertex="1" parent="1">
          <mxGeometry x="660" y="277" width="40" height="33" as="geometry" />
        </mxCell>
        <mxCell id="aA7jyXCErF6xdHRTzT08-14" value="应用服务" style="ellipse;shape=cloud;whiteSpace=wrap;html=1;fillColor=#ffe6cc;strokeColor=#d79b00;" vertex="1" parent="1">
          <mxGeometry x="730" y="109" width="120" height="175" as="geometry" />
        </mxCell>
        <mxCell id="aA7jyXCErF6xdHRTzT08-18" value="数据网络" style="text;html=1;strokeColor=none;fillColor=none;align=center;verticalAlign=middle;whiteSpace=wrap;rounded=0;" vertex="1" parent="1">
          <mxGeometry x="750" y="330" width="60" height="30" as="geometry" />
        </mxCell>
        <mxCell id="OeS4Q1I3CSxu7Xxp6_FL-2" value="" style="rounded=0;whiteSpace=wrap;html=1;" parent="1" vertex="1">
          <mxGeometry x="180" y="110" width="120" height="240" as="geometry" />
        </mxCell>
        <mxCell id="OeS4Q1I3CSxu7Xxp6_FL-3" value="" style="image;points=[];aspect=fixed;html=1;align=center;shadow=0;dashed=0;image=img/lib/allied_telesis/buildings/School_Building.svg;" parent="1" vertex="1">
          <mxGeometry x="251.8" y="214.10000000000002" width="36.4" height="36.8" as="geometry" />
        </mxCell>
        <mxCell id="OeS4Q1I3CSxu7Xxp6_FL-4" value="" style="sketch=0;pointerEvents=1;shadow=0;dashed=0;html=1;strokeColor=none;fillColor=#005F4B;labelPosition=center;verticalLabelPosition=bottom;verticalAlign=top;align=center;outlineConnect=0;shape=mxgraph.veeam2.transport;" parent="1" vertex="1">
          <mxGeometry x="194" y="218.5" width="38" height="23" as="geometry" />
        </mxCell>
        <mxCell id="OeS4Q1I3CSxu7Xxp6_FL-5" value="" style="sketch=0;aspect=fixed;pointerEvents=1;shadow=0;dashed=0;html=1;strokeColor=none;labelPosition=center;verticalLabelPosition=bottom;verticalAlign=top;align=center;fillColor=#00188D;shape=mxgraph.mscae.enterprise.android_phone" parent="1" vertex="1">
          <mxGeometry x="199.2" y="140" width="27.6" height="46" as="geometry" />
        </mxCell>
        <mxCell id="OeS4Q1I3CSxu7Xxp6_FL-7" value="" style="shape=mxgraph.signs.transportation.car_4;html=1;pointerEvents=1;fillColor=#000000;strokeColor=none;verticalLabelPosition=bottom;verticalAlign=top;align=center;sketch=0;" parent="1" vertex="1">
          <mxGeometry x="249.99999999999997" y="148" width="40" height="30" as="geometry" />
        </mxCell>
        <mxCell id="OeS4Q1I3CSxu7Xxp6_FL-9" value="" style="shape=image;verticalLabelPosition=bottom;verticalAlign=top;imageAspect=0;aspect=fixed;image=data:image/jpeg,/9j/4AAQSkZJRgABAQEASABIAAD/2wBDAAgGBgcGBQgHBwcJCQgKDBQNDAsLDBkSEw8UHRofHh0aHBwgJC4nICIsIxwcKDcpLDAxNDQ0Hyc5PTgyPC4zNDL/2wBDAQkJCQwLDBgNDRgyIRwhMjIyMjIyMjIyMjIyMjIyMjIyMjIyMjIyMjIyMjIyMjIyMjIyMjIyMjIyMjIyMjIyMjL/wAARCAH0AfQDASIAAhEBAxEB/8QAHAABAAEFAQEAAAAAAAAAAAAAAAcBBAUGCAMC/8QATBAAAgECAwMGCgYHBAoDAAAAAAECAwQFBhEhMVEHEhNBYXEUIjKBkZOhscHRFRdCUlRzIzVVYmRy0jOCkuEWJTZDdKKywvDxJDRj/8QAGgEBAAIDAQAAAAAAAAAAAAAAAAQFAQIDBv/EAC0RAQACAgEDAgYCAgIDAAAAAAABAgMRBBIhMSJRBRMUQVJhFTIzQiNxQ4Gx/9oADAMBAAIRAxEAPwCdgAAAAAAAAAAAAAAAAAAAAAAAAAAAAAAAAAAAAAAAAAAAAAAAAAAAAAAAAAAAAAAAAAAAAAAAAAAAAAAAAAAAAAAAAAAAAAAAAAAAAAAAAAAAAAAAAAAAAAAAAAAAAAAAAAAAAAAAAAAAAAAAAAAAAAAAAAAAAAAAAAAAAAAAAAAAAAAAAAAAAAAAAAAAAAAAAAAAAAAAAAAAAAAAAAAAAAAAAAAAAAAAAAAAAAAAAAAAAAAAAAAAAAAAAAAAAAAAAAAAAAAAAAAAAAAAAAAAAAAAAAAAAAAo2km29ElrrwAqDU8b5QcHwlypUJu9uVs5lF+Kn2y3EfYtygY5ifOhTrqzoP7FvsbXbJ7fcSsXEy5O+tON+RSv7TBf4vh2GQcr69oUFwqTSfoNYveU3A7ZtW8Lm7kvuQ5q9MvgQ/Oc6lR1Kk5Tm98pNtvzs+SdT4fSP7TtGtyrT4SLc8rFzJtWuFUYLqlUquT9CRjqnKfmCfkRsqa7KLb/AOo0sEiOJhj/AFcZz5J+7bvrJzHrr09v3dD/AJlzbcqON0n+no2deP8AI4P0pmkAzPGxT/qfOye6UbTlXt5aeGYXVg+NGope/Q2Cyz9ly80Xh3g8n1V4uHtewg4HG3AxT47OleVePLpG3uqF3BTt69OtF7nTkn7j1Obre5r2lTpLetUoz+9Tm4v2GzYbyh4/YaRq14XlNfZrx26fzIi3+HWj+s7dq8uJ/tCawaRhXKbhN5zYX9OpY1H9p+NT17+rzm4211b3lFVratTrUnulTlqiFfFen9o0kVvW3iXsADm3AAAAAAAAAAAAAAAAAAAAAAAAAAAAAAAAAAAAAAAAAAAAAAAAAAAAAAAAAAAB8VatOhSnVrTjTpwXOlOb0UV2sjLNHKROq52eBycYbpXbW1/ycO/edcWG+WdVhzvkrSO7ccw5vwzL0HCtUdW601jb0/K8/wB3zkU49nLFselKFWr0FrrsoUm0vO97MBOcqk5TqSlOcnrKUnq2z5LnDxKY+895QMme1wAEpwAAAAAAAAAAAAAAu8PxS+wquq1jdVaE975j2PvW5loDE1i0almJmPCTsB5UITcaGN0VB7vCaK8Xzx6vMSFa3Vve28K9tWhWpT2xnB6pnN5ksGx/EcBuOmsK7gn5dN7YT70QM3Arbvj7SlY+VMdrOhAatlnPGH4+o0Kmlrfaf2M5bJ/yvr7t/ebSVV6WpOrRpNraLRuAAGjYAAAAAAAAAAAAAAAAAAAAAAAAAAAAAAAAAAAAAAAAAAAAAAAAAAAscWxeywWxld31ZU6cdiW9zfBLrZa5hzHZZcsenuZc6rPZSoRfjVH8F2kJ43jt9j987q9qa9UKa8mmuCXx6yXxuLbLO58OGXPFO0eWRzRnC+zHWdNt0LGL1hQi9/bJ9b9iNcALqlK0jVY7K61ptO5AAbtQAAAAAAAAAAAAAAAAAAAABVNxaabTT1TT3Eh5U5Ralu6djjcpVKWxQut8ofzcV27+8jsHLLhpljVm+PJak7h0nSq069KFWlONSnNaxnF6qS4pn2QblfON7lyqqT1r2En49Bvd2x4P2MmXCsWssasYXdjWVSlLY+MXwa6mUvI41sU9/CxxZq3j9r0AEZ2AAAAAAAAAAAAAAAAAAAAAAAAAAAAAAAAAAAAAAAAAAAAAAwOZ80WuW7Lnz0q3dRfoaCe2Xa+CKZpzRbZbsefLSpd1F+ho673xfYQliGIXWKX1W8vKrqVqj1k31di4LsJvF4s5Z6reP/qNmz9HaPL6xPE7vF76peXtV1K0+vqS4JdSLMAuoiKxqFfMzMgAMsAAAAAAAAAAAAAAAAAAAAAAAAAAAGRwXHL7Ab5XVlV5r3Tg/JqLhJf+aGOBrasWjUsxMxO4TzlvNVjmS21ovorqC/S28ntj2riu0zpzfa3VeyuadzbVZ0q1N6wnF6NMl7J+eKWOKNlfc2jiCWxrZGt2rg+z0FRyeHOP1U8J+HkRb028tyABASgAAAAAAAAAAAAAAAAAAAAAAAAAAAAAAAAAAAAAAAAwmZsy2uW8PdarpO4nqqNFPbN/BcWeuYMwWmXsNldXL1m/FpUk/GqS4L4sg3FsWu8bxGpe3lTnVJ7El5MI9UUuBM4vFnLPVbwj5s3RGo8vjEsSusWv6l7eVXUrVHtfUl1JcEi0ALuIiI1CumZmQAGWAAAAAAAMzlzLV9mW+dva6QpwSdWtLyYJ7u99hra8UjcyzWJmdQwwJchySYZzFz8SvHLTa4qKTfoPr6pMJ/aF9/yf0kX6/D7u/wBNkRCCX/qkwj9oX3ph/SPqlwj8ffemH9I+uw+59NkRACX/AKpcI/H33ph/SPqlwf8AH3/ph/SPr8PufS5EQAl/6pcH/H3/AKYf0j6pcH/H3/ph/SPr8PufS5EQAl/6pcH/AB9/6Yf0mu5o5N6uEWc77Da87mhSWtWnNLnxXXJabGl3Ga83DadbYnj5KxtoQAJbgAAAAAAAAH1Ccqc4zhJxnF6xcXo0+w+QBLWSs9RxJU8NxSajeeTSrPdW7Hwl7+83w5p1aeqejXWSjknPnhHR4XjFXStsjRuZPy/3ZdvB9fXtKnlcPXrxp2DPv03SKACtTAAAAAAAAAAAAAAAAAAAAAAAAAAAAAAAAAAADHY1jVpgOHTvLuekVshBeVOX3UXd5d0LC0q3V1UVOhSjzpyfUiC80Zjr5jxSVeWsLanrGhSf2Y9va+sk8bjzmt+occ2X5cfta47jl3j+JTvLuW/ZTpp+LTj1JGNAL2tYrGoVkzMzuQAGzAAAAAAAAATdya2UbbJ1Gqo6TuKk6knx281exIhHcdE5XtvA8r4ZQa0lG2hzu9rV+0r/AIjbVIhK4keqZZUqAU6wAAAAAAAAD5lFSTi0mnvT6z6KAc447ZRw7H8Qs4LSFG4nGH8uuz2GPNo5Q7fwfO17s0jVUKi88Vr7dTVz0mG3Vjif0qLxq0wAA6NAAAAAAAAAAASXkjPT1pYTi9X92hcTfojJ+5klnNJJWRc8aOnhGLVdj8W3uJv/AJZP3MquXxNeuibgz/62SYACsTQAAAAAAAAAAAAAAAAAAAAAAAAAAAAAKNqKcm9Etur6ipG3KJm3mKeB2FTxmtLqpF7l9xdvH0HXDinLbphpkvFK7lg89ZteN3fgNnP/AFfQlvX+9kvtd3D0mnAF/jxxjrFaqu95vO5AAdGgAAAAAAAAAAPW2oO6uqNut9Wcaa87S+J0vSgqdKEFujFI59yjbq6zdhdJrY7hS/wpy+B0ImVPxG3qiE/iR2mVQAVqWAAAAAAAAFCpQCIuVq16PHLG6S0VW3cO9xk/6kR8S1yt2ynhFhdddO4dP/FHX/tIlL3hW6sMKzkRrJIACW4AAAAAAAAAAAAACUshZ18JVPB8Tq61l4tvXk/LX3H28H1kiHNSbi002mnsaJhyJm9Y1bLD76f+sKUfFk/99Hj3rr9JUczi9Prp4T+Pn36bN0ABXJYAAAAAAAAAAAAAAAAAAAAAAAAAWOMYrb4Lhda/uX4lNbIrfOXVFdrMxEzOoYmdRuWDztmmOX8O6G3kniFwmqa39Guub+Hb3EKSlKc3OcnKUm25N6tt9ZeYridzjGJVr66lzqlV66LdFdSXYiyL/jYIxU/cqzNlm9gAEhxAAAAAAAAAAAANmy9kbFswQjXhFW1o91aqn438q3v3Gl8laRu0tq1m06hgLO7r2F5SurWo6delJShNdTNsjyoZhjFL/wCI+10t/tNstOSfCacF4Ve3dafGDjBejR+8uvqty9/F+uXyIOTlca8+qN/+kmuHLWO0tL+tHMPC09U/mPrRzDwtPVP5m6fVbl7+L9avkPqty9/F+tXyOfz+L+Lb5ef3aX9aOYeFp6p/MfWjmHhaeqfzN0+q3L38X61fIfVbl7+L9avkPn8X8T5ef3aX9aOYeFp6p/MfWjmHhaeqfzN0+q3L38X61fIfVbl7+L9avkPn8X8T5ef3aX9aOYeFp6p/MfWjmHhaeqfzN0+q3L38X61fIfVbl7+L9avkPn8X8T5ef3aX9aOYeFp6p/Mp9aOYeFp6p/M3X6rcvfxfrV8h9VuXv4v1q+Q+fxfxPl5/dGOPZsxXMUKdO+qw6Km+dGnThzY87dq+JhCZqnJVgE46QqXsHxVVP3xNbxnkrvrWEquF3UbuK29FNcyfcnufsJGLl4P6x2cr4Mnme6PQfdajVtq06NenOnVg9JQmtGn2nwTUcAAAAAAAAAAAAAD1trmtZ3NO5t6jp1qUlKE11NHkBMb7SynnKmY6OZMKjWWkbqnpGvT+7Lj3P/Izpz9l7HK+X8Wp3tHWUPJrU9dk4da+RPVneUMQs6N3bTU6NWKlGXFMouXx/lW3HiVlgy9cany9wARHcAAAAAAAAAAAAAAAAAAAAACGM/5keM4s7O3nrZWknFabpz65fBf5m+59zB9C4FKlRnpd3etOno9sY/al6NnnITLPgYN/8lkLlZP9IAAWqEAAAAAAAAAAAAHsTA3Tk+ynDHb2V9ew51jbS05jWyrPh3Lr8xNEIRhBRikklokluMLlDDoYZlXD6EUudKkqk3xlLb8dPMZ089yc05bz7LXDjilVCoBwdQAAAAAAAAAoBUFCoAo0VAGmZ8ylSxvDp3ttTSxG3i3FrZ0sVvi/gQmdPaHP2csOjhmbL+3hHm03PpIJdSlt9+pa/D80zvHKFyscR64YIAFmhAAAAAAAAAAAAAASBya5kdrdvBbmf6Gu+dbt/Zn1x8/vI/PqE5U5xqQk4zi04yW9NHLNijLSay3x3mlup0oDC5VxyOP4FRu2108fErxXVNb/AE7zNHnrVmtprK2rO4iYAAasgAAAAAAAAAAAAAAAAb02g13O+LvB8sXNSnLSvX/Q0uxy3vzI2pWb2isNbW6Y2irOONvHMxV60Ja29J9FRX7q3vzvaYAdgPSUpFKxWFTa02ncgANmoAAAAAAAAAABVbZLvKFY+Uu9GJ8MulbBaYdbJdVKHuRclvY/q+3/ACo+5FweZnyuI8AAMMqFliGL4fhVNTvryjQi93Plo33LeywzZj8cuYFVvOapVpNU6MHulN7texbX5iBb2+ucSu53V5WnWrTespTev/ol8biTm7zOoR82eMfaPKeLXOeXbyt0VHFbdyfVNuHtkkZ1SUlsZzESByd5tuLXEKWDXlWVS1rPm0XN6unPqWvBnbPweivVSdtMfJ6p1ZLyD3hGt51zH/o3grq0tHd15dHQT3J9cn3e/QgUpN7RWEm1orG5ZXEccwzCY6397RoarVKctrXdvLKyzhl+/q9Fb4rbym9yk3DX/EkQFc3Ne8uJ3FzVnVrTespzerbPIs4+HV6e890OeXO+0OndT6Iq5N82V3eRwO+qupTmn4NOb1cWtvN14abiVVuK/Nitiv02S8d4vXcAAOTcIR5TY6ZyqPjb0/cybiKuUHK+NYpmJ3llYTr0OhjHnQlHetddmupL4Vorl3Mo/JiZp2RqD0r29a1rzoXFKdKrB6ShOLTT7UzzL2JifCu8AADAAAAAAAAAAAAAA3Hk6xv6Nx9WdSelve+I9XsU15L+BMpzXCc6dSM4S5s4tSjLg1tTOg8BxOOMYHaX631aa564SWxr0lR8QxatF4+6fxb7jplkQAVyWAAAAAAAAAAAAAAAAETcqOJu4xm3w6L/AEdrT58l+/L5L3ksNqMXKXkpavuOecav5YnjV7eyevTVpSXduXsSJ/w+m8nVP2ReVbVde6wABcq8AAAAAAAAAAAAACsfKXeUKx8pd5iWXS1j+r7b8qPuRcFvY/q+2/Kj7kXB5mfK4jwAAwyjXld6TwPC9Nei6SevDnaLT2akVHQWbMAjmPAqtmpKNeL6SjJ9U18HtXnIEvbK5w67na3lGdGvB6ShJbf80XPAyVnH0feFfyazFtvAu8L5/wBL2PR68/winzdOPPWhablq9hv/ACd5SuLrEaWMXlJwtaD51FTWnST6npwXv0JOfJXHSZs446Ta0RCX1uIq5Xek8NwvXXo+jqc3v1jr8CVTWs65beZMFdKjoryg+koN9b02x8/v0KTjZIx5YtKxzVm1JiEDA9bi2rWlxO3uKU6VaD0lCa0a8x5HoIncbhV612ZbLHSf6UYX0WvP8Jhpp37fZqdEkV8m+U68buOOX1J04QT8GhNaOTe+enUtN3eSoUvOyVvk1X7LDjUmtdz9wAEJJD50PooBCPKbCMM5VWlo5UabfbsNPNy5T/8AbCX5EPcaaeh43+Kv/Sqzf3kAB3cgAAAAAAAAAAAAAJS5KsSdSzvcMnLbSkq0F2S2P2rXzkWm08nt74HnC1i3pG4jKi/OtV7vaR+XTrxS7YLdN4TaADz60AAAAAAAAAAAAAAAAYbNl+8NytiFxF6T6Jwg/wB6Wxe8gLTRaLctxLfKnedFgNraRe2vX1a/ditffoRIXPw+mse/eVdyrbvoABPRgAAAAAAAAAAAAAKx8pd5QrHyl3mJZdLWP6vtvyo+5FwW9j+r7b8qPuR7nmZ8riPCoMXjGYcNwG3VW/uY0+d5MN8pdyNUfKxg/Tc1Wl50evl81a+jU3phyXjdYa2yVrOplv5YYjg2HYtTUL+zo3EVu58dWvPvPDBcx4Zj9F1MPuVUcV41NrSce9GVW409VZ9pbRq0MDa5Ky5Z1lVo4Tbqa3OSctPSzOqKikopJJaJIq3oaVmzlAt8BrSsrKnG6vo+Wm/Ep9+m99hvWuTNbUd5azNaRvw3XXQEE1uUPM1apzlfRprqjTpJJGawTlTvqFeNPGKULig3tq0o82ce3TcyRbgZaxvy5RyaTOkmYlgWF4vFK/saNxpuc47fTvLOyydl+wrKtb4Xbqot0pLnaekytpeUL+1p3NrVjVoVI86E4vY0e5F67xHTt26az3NEtmmwqeVevStqM61apGnSgtZTk9El2s0y+5UsDtqrp0I3F1pvnThpF9ze8zTHe8+mNlr1r5lvANTwflDwPFq8bfpZ2taWxRuI81N8FLcbVrqYvS1J1aNFbRbvD6KalSLs/wCacZwjMCtLG8dGi6EZc1RT2vXrN8OKctumrGS8UjcsFymzjLONRJ6uNCmn2bDTj1ubmveXE7i5qzq1qj1lOb1bZ5F/ip0Uis/ZV3t1WmQAHRoAAAAAAAAAAAAABeYVcO1xeyuE9Ojrwk32c5a+zUsyjbUW1v02GLRuJZidTt0vrrtW57QeNpU6WyoVF9qnF+xHseZmNTpcR4AAYZAAAAAAAAAAAAAEUcq110mM2Nqn/Y0HN/3ns/6TQDbOUeTlnGvq91KmvYzUz0PFjWGqqzTvJIADu5AAAAAAAAAAAAAAVj5S7yhWPlLvMSy6Wsf1fbflR9yPnEb2nh2H3F5V/s6NNzfbotx9WP6vtvyo+5GIzrQqXGTsUp0k3N0G0l2NP4Hm6xu8RK3mdV7IMxbFbrGsSq313NyqVHqlrsguqK7EWQ112g9JWsViIhUTO+8rvDcSucIxClfWlRwrUnqtPtLrT4pnRGFX9PFMKtr6l5Femp6cOK8z1RzYT5kWhUt8lYZCqtJdE5adjk2vYyt+I1jUW+6XxJncwvMzYo8Gy7e30P7SnTfRr957Ec81Jzq1JVKknOcm5Sk+tveydeUG2nc5Mv1TTbpqNRpdaT2kEG3w6sdEz92OXM9UQAAsURJfJRi9TprvCKkm6aj09LX7L10kl36p+YlPUhzkqtp1cx3Fwk+ZRt2m+1tJL3kx9RRc6IjNOlnx5mad0PcpmYa15i8sHo1GrW206VJ7Jz7e40IzmcqNSjnHFY1E05V3Na9aaWjMGW/HpWuOIqgZbTa87CYuTPMVXE8Nq4ddTc69olzJt6uVN7te7d50Q6SFyS0KksaxCuk+jjbqDfa5Jr2JnLm0icMzP2b8e0xeIS4Qvyo/7WR/4eHxJoIW5Uf9rI/8PD4ldwP8yXyf6NKABeK0AAAAAAAAAAAAAAAAKPc+5lT6hTlVnGnHyptRXe9hifDMOiMJ1+h7LXf0EPcXh5W1JULWjSW6EIx9CPU81ad2lcV8AANWQAAAAAAAAAAAABC/KTDmZxqt/ao05L2r4Gom98qlBwzBa1+qrbKP+Fv+o0Q9Dxp3hqqs0aySAA7uQAAAAAAAAAAAAAFY+Uu8oVj5S7zEsulrH9X235Ufcj1qQjUhKE0nGS0ae5o8rH9X235Ufcj3PMz5XEeEJ5tyJe4Pd1bmwozuMPk3JcxaypdjXDtNP5k+dzeZLXhzXqdO6Hh4JbdL0ng9Ln7+dzFr6Sfj+IWrXVo2i34sTO4nSF8p5EvsauaVxe0Z2+HRalKU1pKquEV8SbKdONKlGnCKjCCUYpLRJLqPrQEXPntmtuXfHijHHZ8VaUK1KVOpFShOLjKL60yDc25MvMv3dStRpzq4dOWtOrFa8z92XDvJ12FHCMouMkmmtGmt5nBnthncMZcUZI7uYk0+tMusOw28xa7jbWFvOvVk90VsXa3uSJ7r5SwC5q9JVwm1cuKhp7jI2lhaWFPo7S2pUIcKcVHX0E63xGNemvdGjid+89mHyjlqnlrCFb85Tuaj59eouuXBdiNgHWU1XErL2m9ptbym1rERqGjZ+yZUxyMcRw9Lw6lHmypvZ0serzoiG5tLmzrSpXNvVo1I7HGcGmjpjRHnVt6NdJVaVOppu58U9PSS8HNtir0zG4R8nHi87js51wrA8Sxm5VCxtKlR67Zc3SMVxbexE45Uy5Ry1hEbWElUrTfPrVNPKl2di6jOQpwpxUYQjGK3KK0R9aGnI5Vs3bxDbFgindQtbnDrK8etzaUKza01qU1LZw2ouyjIsTp3mN+XNF5TjSvrinFaRjVlFd2rPAucQ/Wd3+dP3stj01fEKafIADZgAAAAAAAAAAAAADL5XtPDs0Ybb6ap14yf93xvgYg3bkvsunzLUuWtY21Bv+9J6L3M5Z7dOOZdMUbvEJge1gA84tgAAAAAAAAAAAAAAAEe8q1nz8Ow+8S1dKrKk3wUlr70iKyeM54e8Typf0YR1qQh0sEutx2pED+4uuBfeLXsruVXV9+4ACcjAAAAAAAAAAAAAAVj5S7yhWPlLvMSy6Wsf1fbflR9yLgt7H9X235Ufci4PMz5XEeAAGGVve3lCws6t1c1Y06FKLlOT6kRBjvKXit9XnDDJeBWq8lpJ1JLi31dyNi5Wb+pRwuxsYNqFxUlOenWo6aL0yT8xEpacLjVtX5lo2hcjNMW6YbBbZ3zJa1lUWLV6un2a2k4vzEpZOzrRzLTlb14RoX9OPOlBPxZx+9H5EGmSy/fVMOzBYXVJ6ShXin2xb0a9DZJ5HFpeszEalxxZrVt3l0Z1FpiWI22E2Fa9u6nMoUo6yfwXFsu09VqRnyuX1SNLDrCMtKc3OrNcWtEve/YU+DH8zJFE/JforNmAxrlJxnEK0o2NTwG318VQSc33y+RjbTPOZLSsqixSrWS3wr6TizXgXtePiiuulWzlvM72nfKGcLfM1tKEoqjfUlrUpa6pr70eK9xtC3HPeUL6ph2a8OrU20pVlSkuMZbGvd6DoQp+XgjFfUeJT8GSb17gAIruFGVKMDmrEP1nd/nT97LYucQ/Wd3+dP3stj01f6wpp8gANmAAAAAAAAAAAAAAJb5LbDoMCub2S8a5rc2L/djs9+pEsYynJRgtZN6RXF9R0LgWHrCsCsrJLbSpRUu172QPiF9UivulcWu7bZAAFMsAAAAAAAAAAAAAAAAFGlKLjJaxa0a7Dn3MGGSwfHryxa0jTqPmbPsvavZs8x0GRvyp4NzqdtjFKO2OlCtour7L9OqJvBy9OTpnxKNyabpv2RiAC7VwAAAAAAAAAAAAAFY+Uu8oVj5S70Yll0tY/q+2/Kj7kXBb2P/ANC3/Kj7kXB5mfK4jwAAwy0XlQwipf4BTvaMHOdlNyml9xrRvzaJ9yZDR07KKktJLVPY0yPMe5Lba8ryuMJuI2kpPV0Zxbp69mm1LsLHh8uuOOi/hEz4JtPVVEpncoYRVxnMtpQhFunTqKtVl1RjF6+1pI2a15JcRlWSusRtadLrdJSlL2pEi4Bl3D8u2fg9lTesttSrLbOb7X8DvyObSKzFJ3Lli49ptuzLJ7CP+VTB6t3hVtiVGLk7STVVJfYlpt8zS9JIKPipThVhKE4qUJLSUZLVNFXiyTjvFoTb06qzDmMEr43yV29zWlXwm6Vtznq6NVOUE+xral2GNs+SW+lWXhuJW8KXX0MZSk/Ski5rzcMxuZV88fJE60wGQ8IqYrmm1kovoLWXTVZdS08led+5k8mLwTArHALFWljS5sddZye2U3xbMoVXJz/OvuPCdhx/LroABHdQ+JTjHbKSWm16s+yE+U2cv9MKkOdLm+D09muzrO2DD86/TvTnlydFdtTvpRniFzKL1i602n52eAB6GI1GlVM7AAZYAAAAAAAAAAAAAGyZGwn6WzRbKcdaFv8Ap6mu7ZuXnfuJy7WaVya4N4BgMr+rDStevnLXeqa3enazdSh5mTry9vss+PTpoAAiu4AAAAAAAAAAAAAAAAWuJWFHFMOuLK4WtKtBwl2dpdAzE6ncMTG+znLEbCvhmIV7K5i1VozcJdvB+ctiU+UzLvhFtHGraGtSilC4SW+HVLzEWHoOPljLTary0mltAAO7kAAAAAAAAAAANdNq3oADpDBLiN3gdjXi01UoQez+Va+0vyPeS/H4XOFywetPSvbaypJvyqb4dz95IKPN5qTTJNZW+O0WrEwqChU5twoVAFCoAAoVAFAVAFCoAAAoBUgrlFuIXGdLvmPVUoQpPvS2+8mXGcVoYLhVe/uJaQpR1S65PqS72c7Xl1Vvr2vd1nrVrTdSXeyx+H0mbTdE5du0VeIALdAAAAAAAAAAAAAAAy2W8GqY9jlvYx16Nvn1Zfdgt/yMSTRkDLn0Lg/hNxDS8u0pyT3wj9mPxfm4EblZvlY9/eXbDj67NspU4UaUKVOKjCEVGMV1JbEj6AKBaAAAAAAAAAAAAAAAAAAAAAD5qU4Vac6dSKnCacZRa2NPeiCs3Zdnl3GJUopu0q6zt5v7v3X2r5E7mJzFgVDMOE1LOr4tTyqNTTbCfU+7j2Eni55xX7+Jcc+Lrr28ufwXF9ZXGG31azuqbp1qUubKPxXY95bl9ExMbhWT2kABlgAAAAAAAAAAHvZXtxh15Su7SrKlXpS50JrqJey5ykYdiNKFDE5Rs7vc5Sf6Ob4p9Xc/SQ0Dhn49M0d/Lrjy2x+HTdGtSr01UpVI1IS3ShLVPzo+zmalc17d60a9Sm+MJtHv9L4n+0Lv10iBPw6d9rJMcuPZ0mDmz6XxP9o3frpfMfS+J/tG79dL5j+On8j6uPZ0mDmz6XxP9o3frpfMfS+J/tG79dL5j+On8j6uPZ0mDmz6XxP9o3frpfMfS+J/tG79dL5j+On8j6uPZ0mDmz6XxP8AaN366XzH0vif7Ru/XS+Y/jp/I+rj2dJg5s+l8T/aN366XzK/S+J/tC79dL5mP4635H1cezpEwWM5uwbBKcnc3kJVVuo0mpTb7lu8+hA9XEb6vHm1by4muEqjZbG9fh0b9VmLcv2hsGac23mZrpOouitKbfRUE9Uu18X7jXwCypStK9NUS1ptO5AAbNQAAAAAAAAAAADJYDgtzj+K0rG3WnO21J6bIQ62zFrRWJmWYiZnUNh5P8sPGMS+kLqnrZWsk0mtlSe9LuW9+ZdZMZa4dh9vhWH0bK1hzKNKPNj28W+1vaXR5/kZpy339lpixxjroABwdQAAAAAAAAAAAAAAAAAAAAAAAGoZ5ykses/C7SCWIUI+Kt3Sx+6+3h/mQzKMoScZpxlF6NNbU0dKkeZ+yY7tVMYw2n+nS1uKMV/aL7yXHiusseHyumfl38InIw79VUWAAt0AAAAAAAAAAAAAAZzJ9tbXmbcNt7unGpRnVfOhJaqWkW0n2apE7xwvD1FJWNqkupUY/I58wK48Ex/D7jXTmXNNt9nOSfs1Oj1tWpUfENxeE7iamsrT6Lw/8Dbeqj8h9F4f+BtvVR+Rdgr+qUvULT6Lw/8AA23qo/IfReH/AIG29VH5F2BuTULT6Lw/8Dbeqj8h9F4f+BtvVR+RdgdUmoWn0Xh/4G29VH5D6Lw/8Dbeqj8i7A6pNQtPovD/AMDbeqj8h9F4f+BtvVR+RdlBufc1CMeVTDcPtcPsbihbUqNzKs4OVOCjzo83V66b9uhF5JPK7c869wy1T8inOo13tJf9LI2L3hb+TG1byP8AJOgAEpwAAAAAAAAAAAAHWB629vWu7mnb29OVStUkowhHe2ycsp5apZbwtUvFnd1dJV6i63wXYv8AMw2Qco/RNusTvqel9Wj+jhL/AHMX/wBzN4Kbmcnrnor4WHHw9Pqt5AAQEoAAAAAAAAAAAAAAAAAAAAAAAAAAAAARjnvJLg6uMYVS8V6zuKEFu4ziuHFEbnSxF+eMjOi6mLYRS/R7ZV7eC8njKK4cUWnD5f8A47yhZ8H+9UcgAtEIAAAAAAAAAABNx2xekltT4M6Ww64V3htrcR3VaUZrzo5pJ9yNdeFZLwyeurhS6L/C3H4Fb8Sr6ayl8Se8w2IFCpUp4AAAAAAAAUKlAIS5Tbnp841Kev8AYUYU/Sud/wBxpxms3XPhWbsUq66pXEoJ9kfF+BhT0eCvTjrH6VGSd3mQAHVoAAAAAAAAAAASHye5R8KnDGr+nrQg9banJeXL7z7F1GIyZlCpmC7VzcxcMNpS8d7ula+yviyaKdOFKnGnTiowglGMY7EktyK3m8nX/HXyl8fD1eq3h9AAqU8AAAAAAAAAAAAAAAAAAAAAAAAAAAAAAAAHUABGed8h6dJiuD0tVtlXtor0yiveiNeo6WI8zrkNXXSYphFJKv5Va3itlTi49vZ19++z4nM16MiHn4+/VVFgDTTaaaa2NPqBaoIAAAAAAAASJyc5vtcNpVMJxGqqNKc+fRqz8mLe+L4cde8jsHLNijLXplvjvNLbh01Sr0q1NTpVYTg90oyTTPTnLijmEFf/ABs/klfV/p09zlxQ5y4o5hA/jZ/I+r/Tp7nLihzlxRzCB/Gz+R9X+nT3OXFDnLijmED+Nn8mfq/06e50eKNbzNnDDsBsqvNuKVa9aap0ISTfO6nLgu8gUG1Ph0RO7S1ty5mO0PqpOVWpKpNuU5Nyk31tnyAWaGAAAAAAAAAAAbJlHKlfMl7zpqVOwpP9LV4/ux7fceOVssXOZMQ6OGtO0ptOtW03Lgu0m+wsLbDLKlaWlJU6FJaRive+3tIPL5UY46K+UnBg653Ph92trQsrWnbW1ONKjTjzYQjuSPYApZnax0AAAAAAAAAAAAAAAAAAAAAAAAAAAAAAAAAAAAAAAA0XOmRYYoqmI4XBRvt9Skt1bt7Je8iWpTnSqSp1IShOLalGS0afBnShq+asl2mYacq9Lm2+IJeLW02T7Jce8sOLzOj038Imbj9XqqhEF3iOG3eE3s7S9oyo1o709zXFPrRaFvExMbhBmNAAMsAAAAAAAAAAAAAAAAAAAAAAAAAAAAAAZrLWW7vMmIdDR8ShBp1q7Wqgvi31IrlrLN3mO+VKjrTt4PWtXa2QXxfYTdhWFWmDWFOysqShSh19cn1tvrZC5XKjHHTXykYMHX3nw+sMwy1wiwp2VnTUKMF55Pi31suwClmZmdysYjUAAMMgAAAAAAAAAAAAAAAAAAAAAAAAAAAAAAAAAAAAAAAAAAxWO5fscwWXg95T8aO2nVjsnTfFP4EL5hyzf5cuujuY8+hJ/oriK8WfyfYT6eF5ZW2IWtS1u6MK1GotJRmt/wAiVx+VbFOvs4ZcMX/7c4A3PNeQrnBXO8sOfcWG9rTWdJdvFdvpNMLrHlrkr1VV16TSdSAA6NQAAAAAAAAAAAAAAAAAAAAAAAA2HK2U7vMl1qtaVlTelWu1/wAseL9xkMo5GuMclC8vlOhh+9PdKr/LwXaS/a2lCxtqdtbUo0qNNc2MIrRJFfyuZFPRTylYePNu9vDyw3DbXCbGnZ2dJU6MNyW9vi31suwComZmdynxHYABhkAAAAAAAAAAAAAAAAAAAAAAAAAAAAAAAAAAAAAAAAAAAAAAAANCzRydUL9zvMHULe6erlReyFR9n3X7Peb6Dpjy3xzustL0i8alzhd2dzYXM7a7oTo1ob4TWjR4HQeM4Bh2PW3Q39uptLxai2Th3P8A8RFmYOTzE8Kc69kne2q26wj+kiu2PX3ot8HNpk7W7SgZOPavjvDTwGmm0001vTW4E1HAAAAAAAAAAAAAAAAADOYBlPFMwVE7al0dsnpK4qLSC7uL7jW160jqtOobVrNp1DDUqVSvVjSpQlUqSekYwWrb7ESblTk5jRdO+xyMZT8qFpvS/n493vNoy7lLDcu006EOlumtJXFReM+7gu4zxU8jmzb04+0J2LjRXvZRJRioxSSWxJdRUAr0oAAAAAAAAAAAAAAAAAAAAAAAAAAAAAAAAAAAAAAAAAAAAAAAAAAAAAAAAAAGCxrKOD46nK5tlCu91ej4s/Px85H+LcmOKWjlPDqsL2kt0X4lRLu3Ml0EjFycmPxLlfDS/mHOF3ZXVhVdK8t6tConpzakWv8A2eB0jcWtvd03TuaFOtB7ObUipI1fEOTnL97rKjRqWc3udCWxf3XsJ9PiNZ/vGkW3En/WULAkK+5Kb2DbscQo1l1RrRcH52tV7DXrzJGYrLVzw2pUit8qLU17NvsJVeTit4s4TivHmGvA9q9pc2r0uLetRf8A+tNx96PHVcV6TtExLSYmADVcV6T0pUKtw9KNKdV8KcXL3DcGpeYM1Z5Rx+/0dHC7jmv7VSPMS/xaM2XD+SvEKrUsQvKFvHrjS1qS9OxI5X5GKnmW9cV7eIaAZbCMtYtjc0rK0nKn11p+LBed/AlnCsg4DhbjN27u60dvSXD523sjuRs0YxhFRhFRitiSWiRCy/EY8Y4SacSf9mj4Dya2Fg4V8Tn4bXW3o9NKcX3dfnN3p04UoRhTjGEIrRRitEl2I+gV2TLfJO7Sl1pWviAAHNsAAAAAAAAAAAAAAAAAAAAAAAAAAAAAAAAAAAAAAAAAAAAAAAAAAAAAAAAAAAAAAAAAAANwAHzOEKi0nGMl+8ky0lg+GTessOtW+2ki9BmLTHhjULSGFYfTesLG2i1wpIuY04Q8iEI90Uj6Am0z5k1Bv37QAYZAAAAAAAAAAAAAAAAAAAAAAAAAAAAAAAAAAAAAAAAAAAAAAAAAAAAAAAAAAAAAAAAAAAAAAAAAAAAAAAAAAAAAAAAAAAAAAAAAAAAAAAAAAAAAAAAAAAAAAAAAAAAAAAAAAAAAAAAAAAAAAAAAAAAAAAAAAAAAAAAAAAAAAAAAAAAAAAAAAAAAAAAAAAAAAAAAAAAAAAAAAAAAAAAAAAAAAAAAAAAAAAAAAAAAAAAAAAAAAAAAAAAAAAAAAAAAAAAAAAAAAAAAAAAAAAAAAAAAAAAAAAAAAAAAAAAAH//Z" parent="1" vertex="1">
          <mxGeometry x="191.5" y="278.5" width="43" height="43" as="geometry" />
        </mxCell>
        <mxCell id="aA7jyXCErF6xdHRTzT08-19" value="..." style="text;html=1;strokeColor=none;fillColor=none;align=center;verticalAlign=middle;whiteSpace=wrap;rounded=0;fontSize=44;" vertex="1" parent="1">
          <mxGeometry x="240" y="274" width="60" height="30" as="geometry" />
        </mxCell>
        <mxCell id="aA7jyXCErF6xdHRTzT08-20" value="" style="shape=cylinder3;whiteSpace=wrap;html=1;boundedLbl=1;backgroundOutline=1;size=7.2879310344825114;rotation=90;fillColor=#dae8fc;strokeColor=#6c8ebf;" vertex="1" parent="1">
          <mxGeometry x="483.79999999999995" y="18.28" width="25.38" height="257.32" as="geometry" />
        </mxCell>
        <mxCell id="aA7jyXCErF6xdHRTzT08-21" value="" style="shape=cylinder3;whiteSpace=wrap;html=1;boundedLbl=1;backgroundOutline=1;size=7.938275862068792;rotation=90;fillColor=#f8cecc;strokeColor=#b85450;" vertex="1" parent="1">
          <mxGeometry x="483.8" y="55" width="25.38" height="260" as="geometry" />
        </mxCell>
        <mxCell id="aA7jyXCErF6xdHRTzT08-22" value="" style="shape=cylinder3;whiteSpace=wrap;html=1;boundedLbl=1;backgroundOutline=1;size=7.24862068965507;rotation=90;fillColor=#fff2cc;strokeColor=#d6b656;" vertex="1" parent="1">
          <mxGeometry x="483.8" y="-20" width="25.38" height="260" as="geometry" />
        </mxCell>
        <mxCell id="aA7jyXCErF6xdHRTzT08-25" value="eMBB" style="text;html=1;strokeColor=none;fillColor=none;align=center;verticalAlign=middle;whiteSpace=wrap;rounded=0;" vertex="1" parent="1">
          <mxGeometry x="314.61" y="95" width="60" height="30" as="geometry" />
        </mxCell>
        <mxCell id="aA7jyXCErF6xdHRTzT08-26" value="mMTC" style="text;html=1;strokeColor=none;fillColor=none;align=center;verticalAlign=middle;whiteSpace=wrap;rounded=0;" vertex="1" parent="1">
          <mxGeometry x="314.61" y="131.94" width="60" height="30" as="geometry" />
        </mxCell>
        <mxCell id="aA7jyXCErF6xdHRTzT08-28" value="uRLLC" style="text;html=1;strokeColor=none;fillColor=none;align=center;verticalAlign=middle;whiteSpace=wrap;rounded=0;" vertex="1" parent="1">
          <mxGeometry x="314.61" y="170" width="60" height="30" as="geometry" />
        </mxCell>
        <mxCell id="aA7jyXCErF6xdHRTzT08-29" value="" style="endArrow=classic;startArrow=classic;html=1;rounded=0;" edge="1" parent="1">
          <mxGeometry width="50" height="50" relative="1" as="geometry">
            <mxPoint x="620" y="109.52" as="sourcePoint" />
            <mxPoint x="655" y="109.52" as="targetPoint" />
          </mxGeometry>
        </mxCell>
        <mxCell id="aA7jyXCErF6xdHRTzT08-30" value="" style="endArrow=classic;startArrow=classic;html=1;rounded=0;" edge="1" parent="1">
          <mxGeometry width="50" height="50" relative="1" as="geometry">
            <mxPoint x="620" y="140" as="sourcePoint" />
            <mxPoint x="655" y="140" as="targetPoint" />
          </mxGeometry>
        </mxCell>
        <mxCell id="aA7jyXCErF6xdHRTzT08-31" value="" style="endArrow=classic;startArrow=classic;html=1;rounded=0;" edge="1" parent="1">
          <mxGeometry width="50" height="50" relative="1" as="geometry">
            <mxPoint x="620" y="149.99999999999997" as="sourcePoint" />
            <mxPoint x="655" y="149.99999999999997" as="targetPoint" />
          </mxGeometry>
        </mxCell>
        <mxCell id="aA7jyXCErF6xdHRTzT08-32" value="" style="endArrow=classic;startArrow=classic;html=1;rounded=0;" edge="1" parent="1">
          <mxGeometry width="50" height="50" relative="1" as="geometry">
            <mxPoint x="620" y="184.57999999999998" as="sourcePoint" />
            <mxPoint x="655" y="184.57999999999998" as="targetPoint" />
          </mxGeometry>
        </mxCell>
        <mxCell id="aA7jyXCErF6xdHRTzT08-33" value="Slice ID1" style="text;html=1;strokeColor=none;fillColor=none;align=center;verticalAlign=middle;whiteSpace=wrap;rounded=0;" vertex="1" parent="1">
          <mxGeometry x="650" y="95" width="60" height="30" as="geometry" />
        </mxCell>
        <mxCell id="aA7jyXCErF6xdHRTzT08-34" value="Slice ID2&lt;br&gt;Slice ID3" style="text;html=1;strokeColor=none;fillColor=none;align=center;verticalAlign=middle;whiteSpace=wrap;rounded=0;" vertex="1" parent="1">
          <mxGeometry x="650" y="131.94" width="60" height="30" as="geometry" />
        </mxCell>
        <mxCell id="aA7jyXCErF6xdHRTzT08-35" value="Slice ID4" style="text;html=1;strokeColor=none;fillColor=none;align=center;verticalAlign=middle;whiteSpace=wrap;rounded=0;" vertex="1" parent="1">
          <mxGeometry x="650" y="170" width="60" height="30" as="geometry" />
        </mxCell>
        <mxCell id="aA7jyXCErF6xdHRTzT08-36" style="edgeStyle=orthogonalEdgeStyle;rounded=0;orthogonalLoop=1;jettySize=auto;html=1;exitX=1;exitY=0.5;exitDx=0;exitDy=0;exitPerimeter=0;entryX=0.55;entryY=0.95;entryDx=0;entryDy=0;entryPerimeter=0;" edge="1" parent="1" source="aA7jyXCErF6xdHRTzT08-4" target="aA7jyXCErF6xdHRTzT08-14">
          <mxGeometry relative="1" as="geometry" />
        </mxCell>
        <mxCell id="aA7jyXCErF6xdHRTzT08-37" value="" style="shape=flexArrow;endArrow=classic;startArrow=classic;html=1;rounded=0;endWidth=26;endSize=2;startWidth=26;startSize=2;" edge="1" parent="1">
          <mxGeometry width="100" height="100" relative="1" as="geometry">
            <mxPoint x="430" y="220" as="sourcePoint" />
            <mxPoint x="430" y="198" as="targetPoint" />
          </mxGeometry>
        </mxCell>
        <mxCell id="aA7jyXCErF6xdHRTzT08-38" value="" style="shape=flexArrow;endArrow=classic;startArrow=classic;html=1;rounded=0;endWidth=26;endSize=2;startWidth=26;startSize=2;" edge="1" parent="1">
          <mxGeometry width="100" height="100" relative="1" as="geometry">
            <mxPoint x="565" y="218.5" as="sourcePoint" />
            <mxPoint x="565" y="196.5" as="targetPoint" />
          </mxGeometry>
        </mxCell>
      </root>
    </mxGraphModel>
  </diagram>
</mxfile>
